<svg width="1733" height="956" viewBox="0 0 1733 956" fill="none" xmlns="http://www.w3.org/2000/svg">
<line y1="-2.5" x2="1733" y2="-2.5" transform="matrix(1 -0.000577034 0 1 0 119)" stroke="white" stroke-width="5"/>
<line x1="737.5" y1="21" x2="737.5" y2="956" stroke="white" stroke-width="5"/>
<path d="M805.615 53C807.648 53.8333 809.231 54.9833 810.365 56.45C811.531 57.9167 812.115 59.6167 812.115 61.55C812.115 65.0833 810.915 67.7167 808.515 69.45C806.148 71.15 803.215 72 799.715 72H788.365V35.6H798.315C802.115 35.6 805.065 36.3833 807.165 37.95C809.265 39.4833 810.315 41.75 810.315 44.75C810.315 46.65 809.898 48.3 809.065 49.7C808.265 51.0667 807.115 52.1667 805.615 53ZM794.215 51.1H799.265C800.931 51.1 802.181 50.6167 803.015 49.65C803.881 48.6833 804.315 47.4667 804.315 46C804.315 44.4 803.798 43.2 802.765 42.4C801.765 41.6 800.365 41.2 798.565 41.2H794.215V51.1ZM799.465 66.6C801.431 66.6 803.031 66.1833 804.265 65.35C805.498 64.4833 806.115 63.2333 806.115 61.6C806.115 59.8667 805.431 58.6167 804.065 57.85C802.731 57.0833 801.065 56.7 799.065 56.7H794.215V66.6H799.465ZM837.582 63.45H824.332L820.832 72H815.082L831.182 34.1H831.532L847.632 72H840.932L837.582 63.45ZM835.632 58.45L831.082 46.95L826.382 58.45H835.632ZM872.943 43C869.81 41.3667 867.026 40.55 864.593 40.55C862.793 40.55 861.36 40.95 860.293 41.75C859.26 42.55 858.743 43.65 858.743 45.05C858.743 46.4167 859.393 47.5667 860.693 48.5C862.026 49.4 863.876 50.3 866.243 51.2C868.043 51.8333 869.576 52.5667 870.843 53.4C872.143 54.2 873.21 55.3 874.043 56.7C874.876 58.1 875.293 59.8667 875.293 62C875.293 63.9333 874.81 65.6833 873.843 67.25C872.876 68.8167 871.476 70.0667 869.643 71C867.81 71.9333 865.643 72.4 863.143 72.4C860.943 72.4 858.776 72.0667 856.643 71.4C854.51 70.7 852.61 69.75 850.943 68.55L853.543 64C854.776 64.9333 856.226 65.7167 857.893 66.35C859.593 66.95 861.16 67.25 862.593 67.25C864.36 67.25 865.91 66.8333 867.243 66C868.576 65.1333 869.243 63.8167 869.243 62.05C869.243 60.65 868.676 59.4833 867.543 58.55C866.443 57.6167 864.893 56.7667 862.893 56C860.826 55.2333 859.11 54.4833 857.743 53.75C856.376 52.9833 855.193 51.9333 854.193 50.6C853.226 49.2333 852.743 47.5333 852.743 45.5C852.743 42.5333 853.743 40.15 855.743 38.35C857.776 36.5167 860.443 35.5333 863.743 35.4C866.143 35.4 868.243 35.6833 870.043 36.25C871.876 36.7833 873.576 37.55 875.143 38.55L872.943 43ZM888.795 35.6V72H882.945V35.6H888.795ZM925.814 69.15C924.747 69.9167 923.264 70.65 921.364 71.35C919.497 72.05 917.447 72.4 915.214 72.4C911.447 72.4 908.147 71.5833 905.314 69.95C902.514 68.2833 900.347 66.0667 898.814 63.3C897.314 60.5 896.564 57.4333 896.564 54.1C896.564 50.4667 897.314 47.2167 898.814 44.35C900.347 41.4833 902.464 39.25 905.164 37.65C907.897 36.0167 910.997 35.2 914.464 35.2C916.597 35.2 918.564 35.4833 920.364 36.05C922.197 36.6167 923.814 37.3333 925.214 38.2L922.914 43.65C920.214 41.75 917.464 40.8 914.664 40.8C912.531 40.8 910.531 41.3833 908.664 42.55C906.831 43.6833 905.364 45.25 904.264 47.25C903.164 49.2167 902.614 51.3833 902.614 53.75C902.614 56.25 903.114 58.5 904.114 60.5C905.147 62.4667 906.597 64.0167 908.464 65.15C910.364 66.25 912.547 66.8 915.014 66.8C916.781 66.8 918.364 66.5333 919.764 66C921.197 65.4667 922.397 64.7833 923.364 63.95L925.814 69.15Z" fill="white"/>
<path d="M1050.05 35.6V66.4H1068V72H1044.2V35.6H1050.05ZM1080.95 58.9C1080.95 60.3 1081.31 61.6 1082.05 62.8C1082.78 64 1083.78 64.9667 1085.05 65.7C1086.31 66.4 1087.7 66.75 1089.2 66.75C1090.76 66.75 1092.18 66.4 1093.45 65.7C1094.75 65 1095.76 64.05 1096.5 62.85C1097.23 61.65 1097.6 60.3333 1097.6 58.9V35.6H1103.35V59.05C1103.35 61.65 1102.71 63.9667 1101.45 66C1100.21 68 1098.51 69.5667 1096.35 70.7C1094.18 71.8333 1091.8 72.4 1089.2 72.4C1086.6 72.4 1084.21 71.8333 1082.05 70.7C1079.91 69.5667 1078.23 68 1077 66C1075.76 63.9667 1075.15 61.65 1075.15 59.05V35.6H1080.95V58.9ZM1133.41 72L1124.46 58.25L1116.46 72H1109.26L1121.21 53.25L1109.76 35.6H1117.16L1125.71 48.75L1133.41 35.6H1140.46L1128.91 53.6L1140.91 72H1133.41ZM1152.72 58.9C1152.72 60.3 1153.09 61.6 1153.82 62.8C1154.56 64 1155.56 64.9667 1156.82 65.7C1158.09 66.4 1159.47 66.75 1160.97 66.75C1162.54 66.75 1163.96 66.4 1165.22 65.7C1166.52 65 1167.54 64.05 1168.27 62.85C1169.01 61.65 1169.37 60.3333 1169.37 58.9V35.6H1175.12V59.05C1175.12 61.65 1174.49 63.9667 1173.22 66C1171.99 68 1170.29 69.5667 1168.12 70.7C1165.96 71.8333 1163.57 72.4 1160.97 72.4C1158.37 72.4 1155.99 71.8333 1153.82 70.7C1151.69 69.5667 1150.01 68 1148.77 66C1147.54 63.9667 1146.92 61.65 1146.92 59.05V35.6H1152.72V58.9ZM1204.44 72L1196.24 59.35H1195.64H1190.39V72H1184.54V35.6H1194.79C1198.85 35.6 1202.1 36.6333 1204.54 38.7C1207 40.7667 1208.24 43.6333 1208.24 47.3C1208.24 49.5333 1207.75 51.6167 1206.79 53.55C1205.85 55.45 1204.37 56.9167 1202.34 57.95L1211.19 72H1204.44ZM1190.39 53.75H1195.59C1197.92 53.75 1199.6 53.1167 1200.64 51.85C1201.7 50.55 1202.24 49.1 1202.24 47.5C1202.24 46.5667 1202.04 45.6333 1201.64 44.7C1201.24 43.7333 1200.55 42.9167 1199.59 42.25C1198.62 41.55 1197.35 41.2 1195.79 41.2H1190.39V53.75ZM1244.74 35.6L1231.09 60.2V72H1225.29V60.2L1211.84 35.6H1218.99L1228.39 53.55L1237.59 35.6H1244.74Z" fill="white"/>
<path d="M1350.97 58.9C1350.97 60.3 1351.34 61.6 1352.07 62.8C1352.81 64 1353.81 64.9667 1355.07 65.7C1356.34 66.4 1357.72 66.75 1359.22 66.75C1360.79 66.75 1362.21 66.4 1363.47 65.7C1364.77 65 1365.79 64.05 1366.52 62.85C1367.26 61.65 1367.62 60.3333 1367.62 58.9V35.6H1373.37V59.05C1373.37 61.65 1372.74 63.9667 1371.47 66C1370.24 68 1368.54 69.5667 1366.37 70.7C1364.21 71.8333 1361.82 72.4 1359.22 72.4C1356.62 72.4 1354.24 71.8333 1352.07 70.7C1349.94 69.5667 1348.26 68 1347.02 66C1345.79 63.9667 1345.17 61.65 1345.17 59.05V35.6H1350.97V58.9ZM1388.63 35.6V66.4H1406.58V72H1382.78V35.6H1388.63ZM1432.03 35.6V41.2H1422.63V72H1416.83V41.2H1407.68V35.6H1432.03ZM1445.28 35.6V72H1439.43V35.6H1445.28ZM1492.04 34.3V72H1486.24V50.95L1473.49 69.05H1473.39L1460.94 51.8V72H1455.29V34.3H1455.34L1473.49 60L1491.94 34.3H1492.04ZM1520.72 63.45H1507.47L1503.97 72H1498.22L1514.32 34.1H1514.67L1530.77 72H1524.07L1520.72 63.45ZM1518.77 58.45L1514.22 46.95L1509.52 58.45H1518.77ZM1555.85 35.6V41.2H1546.45V72H1540.65V41.2H1531.5V35.6H1555.85ZM1587.4 35.6V41.2H1569.1V50.9H1585.4V56.5H1569.1V66.4H1588.1V72H1563.25V35.6H1587.4Z" fill="white"/>
<path d="M259.029 228.216H271.613V232H254.497V202.344H271.393V206.128H259.029V215.28H269.985V219.064H259.029V228.216ZM282.643 232L274.723 209.692H279.255L282.291 219.108C282.995 221.279 283.581 223.156 284.051 224.74C284.549 226.324 284.857 227.365 284.975 227.864L285.151 228.612C285.415 227.175 286.383 224.007 288.055 219.108L291.179 209.692H295.667L287.571 232H282.643ZM313.384 219.24V218.448C313.326 216.776 312.871 215.456 312.02 214.488C311.17 213.491 309.952 212.992 308.368 212.992C306.902 212.992 305.64 213.535 304.584 214.62C303.528 215.676 302.868 217.216 302.604 219.24H313.384ZM316.156 226.94V230.812C314.514 231.751 312.343 232.22 309.644 232.22C306.183 232.22 303.426 231.179 301.372 229.096C299.319 227.013 298.292 224.285 298.292 220.912C298.292 217.333 299.231 214.532 301.108 212.508C302.986 210.455 305.376 209.428 308.28 209.428C311.126 209.428 313.384 210.323 315.056 212.112C316.728 213.872 317.564 216.424 317.564 219.768C317.564 220.677 317.476 221.631 317.3 222.628H302.648C302.942 224.564 303.763 226.045 305.112 227.072C306.462 228.099 308.163 228.612 310.216 228.612C312.592 228.612 314.572 228.055 316.156 226.94ZM326.953 209.692V213.52C328.273 210.763 330.591 209.384 333.905 209.384C336.105 209.384 337.851 210.059 339.141 211.408C340.432 212.757 341.077 214.591 341.077 216.908V232H336.765V217.92C336.765 216.365 336.369 215.177 335.577 214.356C334.815 213.535 333.788 213.124 332.497 213.124C330.972 213.124 329.667 213.725 328.581 214.928C327.496 216.101 326.953 217.759 326.953 219.9V232H322.641V209.692H326.953ZM352.464 213.036V225.312C352.464 227.453 353.491 228.524 355.544 228.524C356.747 228.524 357.759 228.201 358.58 227.556V231.428C357.612 231.956 356.424 232.22 355.016 232.22C350.411 232.22 348.108 229.888 348.108 225.224V213.036H344.632V209.692H348.108V204.236H352.464V209.692H358.316V213.036H352.464ZM380.893 220.956H390.397L389.913 219.46C388.798 215.999 387.889 213.139 387.185 210.88C386.481 208.592 386.056 207.169 385.909 206.612L385.689 205.776C385.366 207.155 383.929 211.716 381.377 219.46L380.893 220.956ZM393.961 232L391.629 224.74H379.661L377.285 232H372.489L382.741 202.344H388.681L398.801 232H393.961ZM403.384 232V200.892H407.74V232H403.384ZM414.169 232V200.892H418.525V232H414.169ZM424.074 222.1V218.404H434.81V222.1H424.074ZM440.689 232V202.344H445.177V232H440.689ZM456.075 209.692V213.52C457.395 210.763 459.712 209.384 463.027 209.384C465.227 209.384 466.972 210.059 468.263 211.408C469.553 212.757 470.199 214.591 470.199 216.908V232H465.887V217.92C465.887 216.365 465.491 215.177 464.699 214.356C463.936 213.535 462.909 213.124 461.619 213.124C460.093 213.124 458.788 213.725 457.703 214.928C456.617 216.101 456.075 217.759 456.075 219.9V232H451.763V209.692H456.075ZM475.293 222.1V218.404H486.029V222.1H475.293ZM490.368 217.04C490.368 212.435 491.6 208.739 494.064 205.952C496.528 203.165 499.828 201.772 503.964 201.772C508.188 201.772 511.517 203.165 513.952 205.952C516.386 208.709 517.604 212.405 517.604 217.04C517.604 221.675 516.372 225.385 513.908 228.172C511.473 230.959 508.173 232.352 504.008 232.352C499.872 232.352 496.557 230.959 494.064 228.172C491.6 225.385 490.368 221.675 490.368 217.04ZM497.452 208.988C495.897 210.953 495.12 213.637 495.12 217.04C495.12 220.443 495.926 223.141 497.54 225.136C499.153 227.131 501.309 228.128 504.008 228.128C506.794 228.128 508.965 227.145 510.52 225.18C512.074 223.215 512.852 220.501 512.852 217.04C512.852 213.608 512.06 210.909 510.476 208.944C508.921 206.979 506.75 205.996 503.964 205.996C501.206 205.996 499.036 206.993 497.452 208.988ZM526.973 209.692V213.52C528.293 210.763 530.61 209.384 533.925 209.384C536.125 209.384 537.87 210.059 539.161 211.408C540.452 212.757 541.097 214.591 541.097 216.908V232H536.785V217.92C536.785 216.365 536.389 215.177 535.597 214.356C534.834 213.535 533.808 213.124 532.517 213.124C530.992 213.124 529.686 213.725 528.601 214.928C527.516 216.101 526.973 217.759 526.973 219.9V232H522.661V209.692H526.973ZM560.755 219.24V218.448C560.697 216.776 560.242 215.456 559.391 214.488C558.541 213.491 557.323 212.992 555.739 212.992C554.273 212.992 553.011 213.535 551.955 214.62C550.899 215.676 550.239 217.216 549.975 219.24H560.755ZM563.527 226.94V230.812C561.885 231.751 559.714 232.22 557.015 232.22C553.554 232.22 550.797 231.179 548.743 229.096C546.69 227.013 545.663 224.285 545.663 220.912C545.663 217.333 546.602 214.532 548.479 212.508C550.357 210.455 552.747 209.428 555.651 209.428C558.497 209.428 560.755 210.323 562.427 212.112C564.099 213.872 564.935 216.424 564.935 219.768C564.935 220.677 564.847 221.631 564.671 222.628H550.019C550.313 224.564 551.134 226.045 552.483 227.072C553.833 228.099 555.534 228.612 557.587 228.612C559.963 228.612 561.943 228.055 563.527 226.94ZM585.549 227.996H597.693V232H581.017V202.344H585.549V227.996ZM602.157 232V209.692H606.513V232H602.157ZM602.377 204.808C601.879 204.28 601.629 203.635 601.629 202.872C601.629 202.109 601.879 201.464 602.377 200.936C602.905 200.408 603.551 200.144 604.313 200.144C605.076 200.144 605.721 200.408 606.249 200.936C606.777 201.464 607.041 202.109 607.041 202.872C607.041 203.605 606.777 204.236 606.249 204.764C605.721 205.292 605.076 205.556 604.313 205.556C603.551 205.556 602.905 205.307 602.377 204.808ZM621.566 227.688C623.092 227.688 624.412 227.101 625.526 225.928C626.67 224.725 627.242 223.053 627.242 220.912C627.242 218.272 626.7 216.321 625.614 215.06C624.558 213.799 623.268 213.168 621.742 213.168C620.012 213.168 618.648 213.857 617.65 215.236C616.653 216.585 616.154 218.375 616.154 220.604C616.154 222.921 616.682 224.681 617.738 225.884C618.824 227.087 620.1 227.688 621.566 227.688ZM627.242 209.692H631.554V230.108C631.554 233.54 630.572 236.121 628.606 237.852C626.67 239.612 624.177 240.492 621.126 240.492C618.252 240.492 615.832 240.008 613.866 239.04V234.684C615.744 235.916 618.017 236.532 620.686 236.532C625.057 236.532 627.242 234.376 627.242 230.064V227.776C625.805 230.181 623.649 231.384 620.774 231.384C618.252 231.384 616.096 230.46 614.306 228.612C612.517 226.735 611.622 224.095 611.622 220.692C611.622 217.407 612.458 214.708 614.13 212.596C615.802 210.455 618.017 209.384 620.774 209.384C623.737 209.384 625.893 210.645 627.242 213.168V209.692ZM641.657 200.892V213.52C642.918 210.763 645.221 209.384 648.565 209.384C650.735 209.384 652.481 210.059 653.801 211.408C655.121 212.757 655.781 214.635 655.781 217.04V232H651.469V217.92C651.469 216.395 651.073 215.221 650.281 214.4C649.518 213.549 648.506 213.124 647.245 213.124C645.778 213.124 644.473 213.681 643.329 214.796C642.214 215.911 641.657 217.612 641.657 219.9V232H637.345V200.892H641.657ZM667.167 213.036V225.312C667.167 227.453 668.194 228.524 670.247 228.524C671.45 228.524 672.462 228.201 673.283 227.556V231.428C672.315 231.956 671.127 232.22 669.719 232.22C665.114 232.22 662.811 229.888 662.811 225.224V213.036H659.335V209.692H662.811V204.236H667.167V209.692H673.019V213.036H667.167ZM326.028 331.736V313.344H330.56V331.648C330.56 335.491 329.563 338.409 327.568 340.404C325.573 342.399 322.816 343.396 319.296 343.396C315.835 343.396 313.107 342.428 311.112 340.492C309.117 338.527 308.12 335.696 308.12 332V313.344H312.652V331.956C312.652 334.479 313.253 336.327 314.456 337.5C315.688 338.644 317.301 339.216 319.296 339.216C323.784 339.216 326.028 336.723 326.028 331.736ZM347.031 339.524C348.762 339.524 350.185 338.849 351.299 337.5C352.414 336.121 352.971 334.2 352.971 331.736C352.971 329.419 352.429 327.585 351.343 326.236C350.258 324.857 348.879 324.168 347.207 324.168C345.535 324.168 344.083 324.784 342.851 326.016C341.649 327.219 341.047 329.14 341.047 331.78C341.047 334.361 341.649 336.297 342.851 337.588C344.083 338.879 345.477 339.524 347.031 339.524ZM341.047 320.692V324.124C342.573 321.631 344.861 320.384 347.911 320.384C350.845 320.384 353.162 321.455 354.863 323.596C356.565 325.708 357.415 328.407 357.415 331.692C357.415 335.065 356.535 337.852 354.775 340.052C353.045 342.223 350.727 343.308 347.823 343.308C344.861 343.308 342.602 342.076 341.047 339.612V351.536H336.735V320.692H341.047ZM362.435 343V311.892H366.791V343H362.435ZM373.22 343V320.692H377.576V343H373.22ZM373.44 315.808C372.941 315.28 372.692 314.635 372.692 313.872C372.692 313.109 372.941 312.464 373.44 311.936C373.968 311.408 374.613 311.144 375.376 311.144C376.138 311.144 376.784 311.408 377.312 311.936C377.84 312.464 378.104 313.109 378.104 313.872C378.104 314.605 377.84 315.236 377.312 315.764C376.784 316.292 376.138 316.556 375.376 316.556C374.613 316.556 373.968 316.307 373.44 315.808ZM392.629 338.688C394.154 338.688 395.474 338.101 396.589 336.928C397.733 335.725 398.305 334.053 398.305 331.912C398.305 329.272 397.762 327.321 396.677 326.06C395.621 324.799 394.33 324.168 392.805 324.168C391.074 324.168 389.71 324.857 388.713 326.236C387.716 327.585 387.217 329.375 387.217 331.604C387.217 333.921 387.745 335.681 388.801 336.884C389.886 338.087 391.162 338.688 392.629 338.688ZM398.305 320.692H402.617V341.108C402.617 344.54 401.634 347.121 399.669 348.852C397.733 350.612 395.24 351.492 392.189 351.492C389.314 351.492 386.894 351.008 384.929 350.04V345.684C386.806 346.916 389.08 347.532 391.749 347.532C396.12 347.532 398.305 345.376 398.305 341.064V338.776C396.868 341.181 394.712 342.384 391.837 342.384C389.314 342.384 387.158 341.46 385.369 339.612C383.58 337.735 382.685 335.095 382.685 331.692C382.685 328.407 383.521 325.708 385.193 323.596C386.865 321.455 389.08 320.384 391.837 320.384C394.8 320.384 396.956 321.645 398.305 324.168V320.692ZM412.719 311.892V324.52C413.98 321.763 416.283 320.384 419.627 320.384C421.798 320.384 423.543 321.059 424.863 322.408C426.183 323.757 426.843 325.635 426.843 328.04V343H422.531V328.92C422.531 327.395 422.135 326.221 421.343 325.4C420.58 324.549 419.568 324.124 418.307 324.124C416.84 324.124 415.535 324.681 414.391 325.796C413.276 326.911 412.719 328.612 412.719 330.9V343H408.407V311.892H412.719ZM438.229 324.036V336.312C438.229 338.453 439.256 339.524 441.309 339.524C442.512 339.524 443.524 339.201 444.345 338.556V342.428C443.377 342.956 442.189 343.22 440.781 343.22C436.176 343.22 433.873 340.888 433.873 336.224V324.036H430.397V320.692H433.873V315.236H438.229V320.692H444.081V324.036H438.229ZM449.275 343V320.692H453.631V343H449.275ZM449.495 315.808C448.996 315.28 448.747 314.635 448.747 313.872C448.747 313.109 448.996 312.464 449.495 311.936C450.023 311.408 450.668 311.144 451.431 311.144C452.193 311.144 452.839 311.408 453.367 311.936C453.895 312.464 454.159 313.109 454.159 313.872C454.159 314.605 453.895 315.236 453.367 315.764C452.839 316.292 452.193 316.556 451.431 316.556C450.668 316.556 450.023 316.307 449.495 315.808ZM464.196 320.692V324.52C465.516 321.763 467.833 320.384 471.148 320.384C473.348 320.384 475.093 321.059 476.384 322.408C477.674 323.757 478.32 325.591 478.32 327.908V343H474.008V328.92C474.008 327.365 473.612 326.177 472.82 325.356C472.057 324.535 471.03 324.124 469.74 324.124C468.214 324.124 466.909 324.725 465.824 325.928C464.738 327.101 464.196 328.759 464.196 330.9V343H459.884V320.692H464.196ZM492.918 338.688C494.443 338.688 495.763 338.101 496.878 336.928C498.022 335.725 498.594 334.053 498.594 331.912C498.594 329.272 498.051 327.321 496.966 326.06C495.91 324.799 494.619 324.168 493.094 324.168C491.363 324.168 489.999 324.857 489.002 326.236C488.005 327.585 487.506 329.375 487.506 331.604C487.506 333.921 488.034 335.681 489.09 336.884C490.175 338.087 491.451 338.688 492.918 338.688ZM498.594 320.692H502.906V341.108C502.906 344.54 501.923 347.121 499.958 348.852C498.022 350.612 495.529 351.492 492.478 351.492C489.603 351.492 487.183 351.008 485.218 350.04V345.684C487.095 346.916 489.369 347.532 492.038 347.532C496.409 347.532 498.594 345.376 498.594 341.064V338.776C497.157 341.181 495.001 342.384 492.126 342.384C489.603 342.384 487.447 341.46 485.658 339.612C483.869 337.735 482.974 335.095 482.974 331.692C482.974 328.407 483.81 325.708 485.482 323.596C487.154 321.455 489.369 320.384 492.126 320.384C495.089 320.384 497.245 321.645 498.594 324.168V320.692ZM524.232 328.744H528.104C530.246 328.744 531.874 328.216 532.988 327.16C534.132 326.104 534.704 324.711 534.704 322.98C534.704 321.161 534.132 319.724 532.988 318.668C531.844 317.612 530.187 317.084 528.016 317.084H524.232V328.744ZM519.7 313.344H528.192C531.595 313.344 534.294 314.253 536.288 316.072C538.283 317.861 539.28 320.164 539.28 322.98C539.28 325.796 538.268 328.084 536.244 329.844C534.25 331.604 531.654 332.484 528.456 332.484H524.232V343H519.7V313.344ZM555.464 333.056H552.12C550.477 333.056 549.23 333.379 548.38 334.024C547.558 334.669 547.148 335.491 547.148 336.488C547.148 337.515 547.47 338.321 548.116 338.908C548.761 339.495 549.7 339.788 550.932 339.788C552.34 339.788 553.44 339.407 554.232 338.644C555.053 337.852 555.464 336.825 555.464 335.564V333.056ZM544.244 326.016V321.836C545.974 320.839 548.262 320.34 551.108 320.34C556.945 320.34 559.864 323.171 559.864 328.832V343H555.596V340.36C554.452 342.237 552.442 343.176 549.568 343.176C547.456 343.176 545.754 342.575 544.464 341.372C543.202 340.14 542.572 338.585 542.572 336.708C542.572 334.567 543.378 332.909 544.992 331.736C546.605 330.533 548.864 329.932 551.768 329.932H555.464V328.656C555.464 327.131 555.097 325.987 554.364 325.224C553.63 324.432 552.413 324.036 550.712 324.036C548.336 324.036 546.18 324.696 544.244 326.016ZM568.885 331.956C568.943 334.215 569.633 336.077 570.953 337.544C572.273 338.981 574.121 339.7 576.497 339.7C578.257 339.7 579.899 339.216 581.425 338.248V342.12C579.987 343 578.154 343.44 575.925 343.44C572.434 343.44 569.647 342.34 567.565 340.14C565.482 337.94 564.441 335.197 564.441 331.912C564.441 328.715 565.482 325.987 567.565 323.728C569.677 321.44 572.522 320.296 576.101 320.296C578.037 320.296 579.811 320.707 581.425 321.528V325.488C579.987 324.579 578.359 324.124 576.541 324.124C574.223 324.124 572.361 324.857 570.953 326.324C569.574 327.791 568.885 329.668 568.885 331.956ZM586.384 343V312.2H590.696V343H586.384ZM595.844 331.34L604.6 343H599.452L590.872 331.34L599.276 320.692H604.336L595.844 331.34ZM620.132 333.056H616.788C615.145 333.056 613.898 333.379 613.048 334.024C612.226 334.669 611.816 335.491 611.816 336.488C611.816 337.515 612.138 338.321 612.784 338.908C613.429 339.495 614.368 339.788 615.6 339.788C617.008 339.788 618.108 339.407 618.9 338.644C619.721 337.852 620.132 336.825 620.132 335.564V333.056ZM608.912 326.016V321.836C610.642 320.839 612.93 320.34 615.776 320.34C621.613 320.34 624.532 323.171 624.532 328.832V343H620.264V340.36C619.12 342.237 617.11 343.176 614.236 343.176C612.124 343.176 610.422 342.575 609.132 341.372C607.87 340.14 607.24 338.585 607.24 336.708C607.24 334.567 608.046 332.909 609.66 331.736C611.273 330.533 613.532 329.932 616.436 329.932H620.132V328.656C620.132 327.131 619.765 325.987 619.032 325.224C618.298 324.432 617.081 324.036 615.38 324.036C613.004 324.036 610.848 324.696 608.912 326.016ZM639.141 338.688C640.666 338.688 641.986 338.101 643.101 336.928C644.245 335.725 644.817 334.053 644.817 331.912C644.817 329.272 644.274 327.321 643.189 326.06C642.133 324.799 640.842 324.168 639.317 324.168C637.586 324.168 636.222 324.857 635.225 326.236C634.227 327.585 633.729 329.375 633.729 331.604C633.729 333.921 634.257 335.681 635.313 336.884C636.398 338.087 637.674 338.688 639.141 338.688ZM644.817 320.692H649.129V341.108C649.129 344.54 648.146 347.121 646.181 348.852C644.245 350.612 641.751 351.492 638.701 351.492C635.826 351.492 633.406 351.008 631.441 350.04V345.684C633.318 346.916 635.591 347.532 638.261 347.532C642.631 347.532 644.817 345.376 644.817 341.064V338.776C643.379 341.181 641.223 342.384 638.349 342.384C635.826 342.384 633.67 341.46 631.881 339.612C630.091 337.735 629.197 335.095 629.197 331.692C629.197 328.407 630.033 325.708 631.705 323.596C633.377 321.455 635.591 320.384 638.349 320.384C641.311 320.384 643.467 321.645 644.817 324.168V320.692ZM668.779 330.24V329.448C668.72 327.776 668.265 326.456 667.415 325.488C666.564 324.491 665.347 323.992 663.763 323.992C662.296 323.992 661.035 324.535 659.979 325.62C658.923 326.676 658.263 328.216 657.999 330.24H668.779ZM671.551 337.94V341.812C669.908 342.751 667.737 343.22 665.039 343.22C661.577 343.22 658.82 342.179 656.767 340.096C654.713 338.013 653.687 335.285 653.687 331.912C653.687 328.333 654.625 325.532 656.503 323.508C658.38 321.455 660.771 320.428 663.675 320.428C666.52 320.428 668.779 321.323 670.451 323.112C672.123 324.872 672.959 327.424 672.959 330.768C672.959 331.677 672.871 332.631 672.695 333.628H658.043C658.336 335.564 659.157 337.045 660.507 338.072C661.856 339.099 663.557 339.612 665.611 339.612C667.987 339.612 669.967 339.055 671.551 337.94ZM214.809 449.26H227.305V453H208.869V449.436C212.565 446.737 215.674 443.951 218.197 441.076C220.749 438.172 222.025 435.532 222.025 433.156C222.025 431.484 221.541 430.208 220.573 429.328C219.605 428.419 218.27 427.964 216.569 427.964C214.222 427.964 211.92 428.844 209.661 430.604V426.336C211.773 424.723 214.281 423.916 217.185 423.916C219.884 423.916 222.113 424.679 223.873 426.204C225.633 427.7 226.513 429.841 226.513 432.628C226.513 437.791 222.612 443.335 214.809 449.26ZM253.141 441.692L260.577 453H255.693L250.809 444.816L245.661 453H240.909L248.521 441.648L241.393 430.648H246.277L250.941 438.524L255.737 430.648H260.577L253.141 441.692ZM297.066 424.576V429.02C295.775 428.316 294.602 427.832 293.546 427.568C292.519 427.275 291.199 427.128 289.586 427.128C286.623 427.128 284.144 428.14 282.15 430.164C280.184 432.159 279.202 434.813 279.202 438.128C279.202 441.501 280.184 444.185 282.15 446.18C284.115 448.175 286.711 449.172 289.938 449.172C292.783 449.172 295.174 448.439 297.11 446.972V451.548C295.291 452.751 292.768 453.352 289.542 453.352C285.112 453.352 281.49 451.973 278.674 449.216C275.858 446.459 274.45 442.763 274.45 438.128C274.45 433.64 275.858 429.988 278.674 427.172C281.519 424.356 285.112 422.948 289.454 422.948C292.622 422.948 295.159 423.491 297.066 424.576ZM306.414 421.892V434.52C307.676 431.763 309.978 430.384 313.322 430.384C315.493 430.384 317.238 431.059 318.558 432.408C319.878 433.757 320.538 435.635 320.538 438.04V453H316.226V438.92C316.226 437.395 315.83 436.221 315.038 435.4C314.276 434.549 313.264 434.124 312.002 434.124C310.536 434.124 309.23 434.681 308.086 435.796C306.972 436.911 306.414 438.612 306.414 440.9V453H302.102V421.892H306.414ZM338.085 443.056H334.741C333.098 443.056 331.851 443.379 331.001 444.024C330.179 444.669 329.769 445.491 329.769 446.488C329.769 447.515 330.091 448.321 330.737 448.908C331.382 449.495 332.321 449.788 333.553 449.788C334.961 449.788 336.061 449.407 336.853 448.644C337.674 447.852 338.085 446.825 338.085 445.564V443.056ZM326.865 436.016V431.836C328.595 430.839 330.883 430.34 333.729 430.34C339.566 430.34 342.485 433.171 342.485 438.832V453H338.217V450.36C337.073 452.237 335.063 453.176 332.189 453.176C330.077 453.176 328.375 452.575 327.085 451.372C325.823 450.14 325.193 448.585 325.193 446.708C325.193 444.567 325.999 442.909 327.613 441.736C329.226 440.533 331.485 439.932 334.389 439.932H338.085V438.656C338.085 437.131 337.718 435.987 336.985 435.224C336.251 434.432 335.034 434.036 333.333 434.036C330.957 434.036 328.801 434.696 326.865 436.016ZM362.154 430.692H366.466V453H362.154V449.172C360.98 451.9 358.663 453.264 355.202 453.264C353.002 453.264 351.256 452.619 349.966 451.328C348.675 450.008 348.03 448.204 348.03 445.916V430.692H352.386V444.86C352.386 446.385 352.752 447.559 353.486 448.38C354.248 449.172 355.29 449.568 356.61 449.568C358.282 449.568 359.616 448.981 360.614 447.808C361.64 446.635 362.154 444.977 362.154 442.836V430.692ZM378.248 453L370.328 430.692H374.86L377.896 440.108C378.6 442.279 379.187 444.156 379.656 445.74C380.155 447.324 380.463 448.365 380.58 448.864L380.756 449.612C381.02 448.175 381.988 445.007 383.66 440.108L386.784 430.692H391.272L383.176 453H378.248ZM408.99 440.24V439.448C408.931 437.776 408.476 436.456 407.626 435.488C406.775 434.491 405.558 433.992 403.974 433.992C402.507 433.992 401.246 434.535 400.19 435.62C399.134 436.676 398.474 438.216 398.21 440.24H408.99ZM411.762 447.94V451.812C410.119 452.751 407.948 453.22 405.25 453.22C401.788 453.22 399.031 452.179 396.978 450.096C394.924 448.013 393.898 445.285 393.898 441.912C393.898 438.333 394.836 435.532 396.714 433.508C398.591 431.455 400.982 430.428 403.886 430.428C406.731 430.428 408.99 431.323 410.662 433.112C412.334 434.872 413.17 437.424 413.17 440.768C413.17 441.677 413.082 442.631 412.906 443.628H398.254C398.547 445.564 399.368 447.045 400.718 448.072C402.067 449.099 403.768 449.612 405.822 449.612C408.198 449.612 410.178 449.055 411.762 447.94ZM423.835 434.036V446.312C423.835 448.453 424.862 449.524 426.915 449.524C428.118 449.524 429.13 449.201 429.951 448.556V452.428C428.983 452.956 427.795 453.22 426.387 453.22C421.782 453.22 419.479 450.888 419.479 446.224V434.036H416.003V430.692H419.479V425.236H423.835V430.692H429.687V434.036H423.835ZM446.06 453V423.344H450.548V453H446.06ZM461.446 430.692V434.52C462.766 431.763 465.083 430.384 468.398 430.384C470.598 430.384 472.343 431.059 473.634 432.408C474.924 433.757 475.57 435.591 475.57 437.908V453H471.258V438.92C471.258 437.365 470.862 436.177 470.07 435.356C469.307 434.535 468.28 434.124 466.99 434.124C465.464 434.124 464.159 434.725 463.074 435.928C461.988 437.101 461.446 438.759 461.446 440.9V453H457.134V430.692H461.446ZM486.956 434.036V446.312C486.956 448.453 487.983 449.524 490.036 449.524C491.239 449.524 492.251 449.201 493.072 448.556V452.428C492.104 452.956 490.916 453.22 489.508 453.22C484.903 453.22 482.6 450.888 482.6 446.224V434.036H479.124V430.692H482.6V425.236H486.956V430.692H492.808V434.036H486.956ZM498.001 453V430.692H502.357V453H498.001ZM498.221 425.808C497.722 425.28 497.473 424.635 497.473 423.872C497.473 423.109 497.722 422.464 498.221 421.936C498.749 421.408 499.394 421.144 500.157 421.144C500.92 421.144 501.565 421.408 502.093 421.936C502.621 422.464 502.885 423.109 502.885 423.872C502.885 424.605 502.621 425.236 502.093 425.764C501.565 426.292 500.92 426.556 500.157 426.556C499.394 426.556 498.749 426.307 498.221 425.808ZM512.922 430.692V434.256C514.184 431.675 516.281 430.384 519.214 430.384C522.558 430.384 524.7 431.821 525.638 434.696C526.254 433.317 527.149 432.261 528.322 431.528C529.496 430.765 530.816 430.384 532.282 430.384C534.57 430.384 536.301 431.059 537.474 432.408C538.677 433.757 539.278 435.62 539.278 437.996V453H534.966V438.92C534.966 435.723 533.676 434.124 531.094 434.124C529.804 434.124 528.645 434.696 527.618 435.84C526.621 436.984 526.122 438.671 526.122 440.9V453H521.81V438.92C521.81 435.723 520.505 434.124 517.894 434.124C516.633 434.124 515.489 434.696 514.462 435.84C513.436 436.984 512.922 438.671 512.922 440.9V453H508.61V430.692H512.922ZM545.31 453V430.692H549.666V453H545.31ZM545.53 425.808C545.031 425.28 544.782 424.635 544.782 423.872C544.782 423.109 545.031 422.464 545.53 421.936C546.058 421.408 546.703 421.144 547.466 421.144C548.228 421.144 548.874 421.408 549.402 421.936C549.93 422.464 550.194 423.109 550.194 423.872C550.194 424.605 549.93 425.236 549.402 425.764C548.874 426.292 548.228 426.556 547.466 426.556C546.703 426.556 546.058 426.307 545.53 425.808ZM564.939 449.524C566.64 449.524 568.077 448.879 569.251 447.588C570.424 446.297 571.011 444.332 571.011 441.692C571.011 439.14 570.395 437.248 569.163 436.016C567.96 434.784 566.596 434.168 565.071 434.168C563.34 434.168 561.917 434.857 560.803 436.236C559.688 437.585 559.131 439.521 559.131 442.044C559.131 444.273 559.673 446.077 560.759 447.456C561.873 448.835 563.267 449.524 564.939 449.524ZM571.011 421.892H575.367V453H571.011V449.612C569.456 452.076 567.183 453.308 564.191 453.308C561.257 453.308 558.94 452.208 557.239 450.008C555.537 447.779 554.687 445.095 554.687 441.956C554.687 438.465 555.581 435.664 557.371 433.552C559.16 431.44 561.463 430.384 564.279 430.384C567.183 430.384 569.427 431.616 571.011 434.08V421.892ZM593.19 443.056H589.846C588.204 443.056 586.957 443.379 586.106 444.024C585.285 444.669 584.874 445.491 584.874 446.488C584.874 447.515 585.197 448.321 585.842 448.908C586.488 449.495 587.426 449.788 588.658 449.788C590.066 449.788 591.166 449.407 591.958 448.644C592.78 447.852 593.19 446.825 593.19 445.564V443.056ZM581.97 436.016V431.836C583.701 430.839 585.989 430.34 588.834 430.34C594.672 430.34 597.59 433.171 597.59 438.832V453H593.322V450.36C592.178 452.237 590.169 453.176 587.294 453.176C585.182 453.176 583.481 452.575 582.19 451.372C580.929 450.14 580.298 448.585 580.298 446.708C580.298 444.567 581.105 442.909 582.718 441.736C584.332 440.533 586.59 439.932 589.494 439.932H593.19V438.656C593.19 437.131 592.824 435.987 592.09 435.224C591.357 434.432 590.14 434.036 588.438 434.036C586.062 434.036 583.906 434.696 581.97 436.016ZM608.987 434.036V446.312C608.987 448.453 610.014 449.524 612.067 449.524C613.27 449.524 614.282 449.201 615.103 448.556V452.428C614.135 452.956 612.947 453.22 611.539 453.22C606.934 453.22 604.631 450.888 604.631 446.224V434.036H601.155V430.692H604.631V425.236H608.987V430.692H614.839V434.036H608.987ZM629.184 453.396C625.899 453.396 623.318 452.325 621.44 450.184C619.563 448.043 618.624 445.329 618.624 442.044C618.624 438.7 619.592 435.928 621.528 433.728C623.464 431.499 626.016 430.384 629.184 430.384C632.587 430.384 635.212 431.469 637.06 433.64C638.908 435.781 639.832 438.524 639.832 441.868C639.832 445.212 638.879 447.969 636.972 450.14C635.095 452.311 632.499 453.396 629.184 453.396ZM629.14 434.036C627.234 434.036 625.752 434.799 624.696 436.324C623.64 437.82 623.112 439.683 623.112 441.912C623.112 444.112 623.655 445.975 624.74 447.5C625.826 448.996 627.307 449.744 629.184 449.744C631.179 449.744 632.69 449.011 633.716 447.544C634.772 446.077 635.3 444.215 635.3 441.956C635.3 439.639 634.802 437.747 633.804 436.28C632.807 434.784 631.252 434.036 629.14 434.036ZM649.004 430.692V434.608C650.09 431.851 652.04 430.472 654.856 430.472C655.267 430.472 655.722 430.516 656.22 430.604V434.828C655.604 434.564 654.915 434.432 654.152 434.432C652.656 434.432 651.424 435.092 650.456 436.412C649.488 437.732 649.004 439.301 649.004 441.12V453H644.692V430.692H649.004ZM672.318 431.44V435.356C670.881 434.505 669.033 434.08 666.774 434.08C665.748 434.08 664.926 434.315 664.31 434.784C663.724 435.253 663.43 435.869 663.43 436.632C663.43 436.837 663.445 437.043 663.474 437.248C663.533 437.424 663.621 437.615 663.738 437.82C663.856 437.996 663.958 438.157 664.046 438.304C664.164 438.421 664.34 438.553 664.574 438.7C664.809 438.847 664.985 438.979 665.102 439.096C665.249 439.184 665.469 439.301 665.762 439.448C666.085 439.595 666.32 439.712 666.466 439.8C666.613 439.859 666.862 439.976 667.214 440.152C667.596 440.299 667.86 440.401 668.006 440.46C669.737 441.223 671.086 442.088 672.054 443.056C673.052 443.995 673.55 445.256 673.55 446.84C673.55 448.835 672.846 450.404 671.438 451.548C670.03 452.663 668.124 453.22 665.718 453.22C663.078 453.22 660.878 452.78 659.118 451.9V447.808C661.172 449.069 663.298 449.7 665.498 449.7C666.642 449.7 667.522 449.465 668.138 448.996C668.784 448.527 669.106 447.911 669.106 447.148C669.106 446.503 668.857 445.931 668.358 445.432C667.86 444.904 667.346 444.523 666.818 444.288C666.32 444.024 665.454 443.628 664.222 443.1C660.732 441.663 658.986 439.551 658.986 436.764C658.986 434.799 659.72 433.259 661.186 432.144C662.653 431.029 664.486 430.472 666.686 430.472C669.092 430.472 670.969 430.795 672.318 431.44ZM41.4303 560.26H53.9263V564H35.4903V560.436C39.1863 557.737 42.2956 554.951 44.8183 552.076C47.3703 549.172 48.6463 546.532 48.6463 544.156C48.6463 542.484 48.1623 541.208 47.1943 540.328C46.2263 539.419 44.8916 538.964 43.1903 538.964C40.8436 538.964 38.5409 539.844 36.2823 541.604V537.336C38.3943 535.723 40.9023 534.916 43.8063 534.916C46.5049 534.916 48.7343 535.679 50.4943 537.204C52.2543 538.7 53.1343 540.841 53.1343 543.628C53.1343 548.791 49.2329 554.335 41.4303 560.26ZM79.7625 552.692L87.1985 564H82.3145L77.4305 555.816L72.2825 564H67.5305L75.1425 552.648L68.0145 541.648H72.8985L77.5625 549.524L82.3585 541.648H87.1985L79.7625 552.692ZM108.815 552.956H118.319L117.835 551.46C116.72 547.999 115.811 545.139 115.107 542.88C114.403 540.592 113.978 539.169 113.831 538.612L113.611 537.776C113.288 539.155 111.851 543.716 109.299 551.46L108.815 552.956ZM121.883 564L119.551 556.74H107.583L105.207 564H100.411L110.663 534.344H116.603L126.723 564H121.883ZM135.926 560.172H140.59C143.963 560.172 146.53 559.116 148.29 557.004C150.05 554.892 150.93 552.179 150.93 548.864C150.93 545.813 149.976 543.276 148.07 541.252C146.163 539.228 143.626 538.216 140.458 538.216H135.926V560.172ZM131.306 534.344H140.546C144.946 534.344 148.554 535.708 151.37 538.436C154.186 541.164 155.594 544.64 155.594 548.864C155.594 553.264 154.259 556.887 151.59 559.732C148.95 562.577 145.298 564 140.634 564H131.306V534.344ZM158.761 563.076V558.896C159.964 559.629 161.167 559.996 162.369 559.996C164.775 559.996 165.977 558.72 165.977 556.168V534.344H170.509V555.992C170.509 558.72 169.835 560.744 168.485 562.064C167.165 563.355 165.376 564 163.117 564C161.299 564 159.847 563.692 158.761 563.076ZM187.285 564L189.573 534.344H194.941L198.901 545.168C199.605 547.016 200.309 548.981 201.013 551.064C201.717 553.117 202.245 554.716 202.597 555.86L203.169 557.576C204.518 553.587 205.999 549.451 207.613 545.168L211.749 534.344H217.117L219.845 564H215.357L214.301 552.384L213.377 540.504C212.057 544.229 210.619 548.189 209.065 552.384L204.929 563.428H201.365L197.361 552.384L193.357 540.68C193.357 541.971 193.122 545.872 192.653 552.384L191.773 564H187.285ZM235.032 564.396C231.747 564.396 229.165 563.325 227.288 561.184C225.411 559.043 224.472 556.329 224.472 553.044C224.472 549.7 225.44 546.928 227.376 544.728C229.312 542.499 231.864 541.384 235.032 541.384C238.435 541.384 241.06 542.469 242.908 544.64C244.756 546.781 245.68 549.524 245.68 552.868C245.68 556.212 244.727 558.969 242.82 561.14C240.943 563.311 238.347 564.396 235.032 564.396ZM234.988 545.036C233.081 545.036 231.6 545.799 230.544 547.324C229.488 548.82 228.96 550.683 228.96 552.912C228.96 555.112 229.503 556.975 230.588 558.5C231.673 559.996 233.155 560.744 235.032 560.744C237.027 560.744 238.537 560.011 239.564 558.544C240.62 557.077 241.148 555.215 241.148 552.956C241.148 550.639 240.649 548.747 239.652 547.28C238.655 545.784 237.1 545.036 234.988 545.036ZM256.26 564L248.34 541.692H252.872L255.908 551.108C256.612 553.279 257.199 555.156 257.668 556.74C258.167 558.324 258.475 559.365 258.592 559.864L258.768 560.612C259.032 559.175 260 556.007 261.672 551.108L264.796 541.692H269.284L261.188 564H256.26ZM273.317 564V541.692H277.673V564H273.317ZM273.537 536.808C273.039 536.28 272.789 535.635 272.789 534.872C272.789 534.109 273.039 533.464 273.537 532.936C274.065 532.408 274.711 532.144 275.473 532.144C276.236 532.144 276.881 532.408 277.409 532.936C277.937 533.464 278.201 534.109 278.201 534.872C278.201 535.605 277.937 536.236 277.409 536.764C276.881 537.292 276.236 537.556 275.473 537.556C274.711 537.556 274.065 537.307 273.537 536.808ZM288.239 541.692V545.52C289.559 542.763 291.876 541.384 295.191 541.384C297.391 541.384 299.136 542.059 300.427 543.408C301.717 544.757 302.363 546.591 302.363 548.908V564H298.051V549.92C298.051 548.365 297.655 547.177 296.863 546.356C296.1 545.535 295.073 545.124 293.783 545.124C292.257 545.124 290.952 545.725 289.867 546.928C288.781 548.101 288.239 549.759 288.239 551.9V564H283.927V541.692H288.239ZM316.961 559.688C318.486 559.688 319.806 559.101 320.921 557.928C322.065 556.725 322.637 555.053 322.637 552.912C322.637 550.272 322.094 548.321 321.009 547.06C319.953 545.799 318.662 545.168 317.137 545.168C315.406 545.168 314.042 545.857 313.045 547.236C312.048 548.585 311.549 550.375 311.549 552.604C311.549 554.921 312.077 556.681 313.133 557.884C314.218 559.087 315.494 559.688 316.961 559.688ZM322.637 541.692H326.949V562.108C326.949 565.54 325.966 568.121 324.001 569.852C322.065 571.612 319.572 572.492 316.521 572.492C313.646 572.492 311.226 572.008 309.261 571.04V566.684C311.138 567.916 313.412 568.532 316.081 568.532C320.452 568.532 322.637 566.376 322.637 562.064V559.776C321.2 562.181 319.044 563.384 316.169 563.384C313.646 563.384 311.49 562.46 309.701 560.612C307.912 558.735 307.017 556.095 307.017 552.692C307.017 549.407 307.853 546.708 309.525 544.596C311.197 542.455 313.412 541.384 316.169 541.384C319.132 541.384 321.288 542.645 322.637 545.168V541.692ZM361.607 534.344H366.139V564H361.607V551.02H348.275V564H343.743V534.344H348.275V547.104H361.607V534.344ZM386.302 551.24V550.448C386.244 548.776 385.789 547.456 384.938 546.488C384.088 545.491 382.87 544.992 381.286 544.992C379.82 544.992 378.558 545.535 377.502 546.62C376.446 547.676 375.786 549.216 375.522 551.24H386.302ZM389.074 558.94V562.812C387.432 563.751 385.261 564.22 382.562 564.22C379.101 564.22 376.344 563.179 374.29 561.096C372.237 559.013 371.21 556.285 371.21 552.912C371.21 549.333 372.149 546.532 374.026 544.508C375.904 542.455 378.294 541.428 381.198 541.428C384.044 541.428 386.302 542.323 387.974 544.112C389.646 545.872 390.482 548.424 390.482 551.768C390.482 552.677 390.394 553.631 390.218 554.628H375.566C375.86 556.564 376.681 558.045 378.03 559.072C379.38 560.099 381.081 560.612 383.134 560.612C385.51 560.612 387.49 560.055 389.074 558.94ZM407.307 554.056H403.963C402.321 554.056 401.074 554.379 400.223 555.024C399.402 555.669 398.991 556.491 398.991 557.488C398.991 558.515 399.314 559.321 399.959 559.908C400.605 560.495 401.543 560.788 402.775 560.788C404.183 560.788 405.283 560.407 406.075 559.644C406.897 558.852 407.307 557.825 407.307 556.564V554.056ZM396.087 547.016V542.836C397.818 541.839 400.106 541.34 402.951 541.34C408.789 541.34 411.707 544.171 411.707 549.832V564H407.439V561.36C406.295 563.237 404.286 564.176 401.411 564.176C399.299 564.176 397.598 563.575 396.307 562.372C395.046 561.14 394.415 559.585 394.415 557.708C394.415 555.567 395.222 553.909 396.835 552.736C398.449 551.533 400.707 550.932 403.611 550.932H407.307V549.656C407.307 548.131 406.941 546.987 406.207 546.224C405.474 545.432 404.257 545.036 402.555 545.036C400.179 545.036 398.023 545.696 396.087 547.016ZM426.536 560.524C428.238 560.524 429.675 559.879 430.848 558.588C432.022 557.297 432.608 555.332 432.608 552.692C432.608 550.14 431.992 548.248 430.76 547.016C429.558 545.784 428.194 545.168 426.668 545.168C424.938 545.168 423.515 545.857 422.4 547.236C421.286 548.585 420.728 550.521 420.728 553.044C420.728 555.273 421.271 557.077 422.356 558.456C423.471 559.835 424.864 560.524 426.536 560.524ZM432.608 532.892H436.964V564H432.608V560.612C431.054 563.076 428.78 564.308 425.788 564.308C422.855 564.308 420.538 563.208 418.836 561.008C417.135 558.779 416.284 556.095 416.284 552.956C416.284 549.465 417.179 546.664 418.968 544.552C420.758 542.44 423.06 541.384 425.876 541.384C428.78 541.384 431.024 542.616 432.608 545.08V532.892ZM455.756 542.44V546.356C454.319 545.505 452.471 545.08 450.212 545.08C449.185 545.08 448.364 545.315 447.748 545.784C447.161 546.253 446.868 546.869 446.868 547.632C446.868 547.837 446.883 548.043 446.912 548.248C446.971 548.424 447.059 548.615 447.176 548.82C447.293 548.996 447.396 549.157 447.484 549.304C447.601 549.421 447.777 549.553 448.012 549.7C448.247 549.847 448.423 549.979 448.54 550.096C448.687 550.184 448.907 550.301 449.2 550.448C449.523 550.595 449.757 550.712 449.904 550.8C450.051 550.859 450.3 550.976 450.652 551.152C451.033 551.299 451.297 551.401 451.444 551.46C453.175 552.223 454.524 553.088 455.492 554.056C456.489 554.995 456.988 556.256 456.988 557.84C456.988 559.835 456.284 561.404 454.876 562.548C453.468 563.663 451.561 564.22 449.156 564.22C446.516 564.22 444.316 563.78 442.556 562.9V558.808C444.609 560.069 446.736 560.7 448.936 560.7C450.08 560.7 450.96 560.465 451.576 559.996C452.221 559.527 452.544 558.911 452.544 558.148C452.544 557.503 452.295 556.931 451.796 556.432C451.297 555.904 450.784 555.523 450.256 555.288C449.757 555.024 448.892 554.628 447.66 554.1C444.169 552.663 442.424 550.551 442.424 547.764C442.424 545.799 443.157 544.259 444.624 543.144C446.091 542.029 447.924 541.472 450.124 541.472C452.529 541.472 454.407 541.795 455.756 542.44ZM477.098 564L470.102 541.692H474.678L476.746 549.084C477.42 551.431 477.992 553.499 478.462 555.288C478.931 557.077 479.224 558.28 479.342 558.896L479.518 559.82C479.899 557.972 480.867 554.379 482.422 549.04L484.578 541.692H488.758L490.958 549.04C491.662 551.475 492.263 553.601 492.762 555.42C493.26 557.209 493.583 558.397 493.73 558.984L493.906 559.864C494.258 558.133 495.255 554.525 496.898 549.04L499.098 541.692H503.454L496.37 564H491.442L489.374 556.696C488.758 554.467 488.215 552.501 487.746 550.8C487.306 549.069 487.012 547.896 486.866 547.28L486.69 546.4C486.279 548.307 485.384 551.739 484.006 556.696L481.982 564H477.098ZM503.977 568.488L519.949 532.892H524.393L508.421 568.488H503.977ZM554.665 534.344V538.128H546.877V564H542.345V538.128H534.601V534.344H554.665ZM567.997 564.396C564.711 564.396 562.13 563.325 560.253 561.184C558.375 559.043 557.437 556.329 557.437 553.044C557.437 549.7 558.405 546.928 560.341 544.728C562.277 542.499 564.829 541.384 567.997 541.384C571.399 541.384 574.025 542.469 575.873 544.64C577.721 546.781 578.645 549.524 578.645 552.868C578.645 556.212 577.691 558.969 575.785 561.14C573.907 563.311 571.311 564.396 567.997 564.396ZM567.953 545.036C566.046 545.036 564.565 545.799 563.509 547.324C562.453 548.82 561.925 550.683 561.925 552.912C561.925 555.112 562.467 556.975 563.553 558.5C564.638 559.996 566.119 560.744 567.997 560.744C569.991 560.744 571.502 560.011 572.529 558.544C573.585 557.077 574.113 555.215 574.113 552.956C574.113 550.639 573.614 548.747 572.617 547.28C571.619 545.784 570.065 545.036 567.953 545.036ZM589.093 545.036V557.312C589.093 559.453 590.119 560.524 592.173 560.524C593.375 560.524 594.387 560.201 595.209 559.556V563.428C594.241 563.956 593.053 564.22 591.645 564.22C587.039 564.22 584.737 561.888 584.737 557.224V545.036H581.261V541.692H584.737V536.236H589.093V541.692H594.945V545.036H589.093ZM613.822 551.24V550.448C613.763 548.776 613.308 547.456 612.458 546.488C611.607 545.491 610.39 544.992 608.806 544.992C607.339 544.992 606.078 545.535 605.022 546.62C603.966 547.676 603.306 549.216 603.042 551.24H613.822ZM616.594 558.94V562.812C614.951 563.751 612.78 564.22 610.082 564.22C606.62 564.22 603.863 563.179 601.81 561.096C599.756 559.013 598.73 556.285 598.73 552.912C598.73 549.333 599.668 546.532 601.546 544.508C603.423 542.455 605.814 541.428 608.718 541.428C611.563 541.428 613.822 542.323 615.494 544.112C617.166 545.872 618.002 548.424 618.002 551.768C618.002 552.677 617.914 553.631 617.738 554.628H603.086C603.379 556.564 604.2 558.045 605.55 559.072C606.899 560.099 608.6 560.612 610.654 560.612C613.03 560.612 615.01 560.055 616.594 558.94ZM627.391 541.692V545.256C628.652 542.675 630.75 541.384 633.683 541.384C637.027 541.384 639.168 542.821 640.107 545.696C640.723 544.317 641.618 543.261 642.791 542.528C643.964 541.765 645.284 541.384 646.751 541.384C649.039 541.384 650.77 542.059 651.943 543.408C653.146 544.757 653.747 546.62 653.747 548.996V564H649.435V549.92C649.435 546.723 648.144 545.124 645.563 545.124C644.272 545.124 643.114 545.696 642.087 546.84C641.09 547.984 640.591 549.671 640.591 551.9V564H636.279V549.92C636.279 546.723 634.974 545.124 632.363 545.124C631.102 545.124 629.958 545.696 628.931 546.84C627.904 547.984 627.391 549.671 627.391 551.9V564H623.079V541.692H627.391ZM672.318 542.44V546.356C670.881 545.505 669.033 545.08 666.774 545.08C665.748 545.08 664.926 545.315 664.31 545.784C663.724 546.253 663.43 546.869 663.43 547.632C663.43 547.837 663.445 548.043 663.474 548.248C663.533 548.424 663.621 548.615 663.738 548.82C663.856 548.996 663.958 549.157 664.046 549.304C664.164 549.421 664.34 549.553 664.574 549.7C664.809 549.847 664.985 549.979 665.102 550.096C665.249 550.184 665.469 550.301 665.762 550.448C666.085 550.595 666.32 550.712 666.466 550.8C666.613 550.859 666.862 550.976 667.214 551.152C667.596 551.299 667.86 551.401 668.006 551.46C669.737 552.223 671.086 553.088 672.054 554.056C673.052 554.995 673.55 556.256 673.55 557.84C673.55 559.835 672.846 561.404 671.438 562.548C670.03 563.663 668.124 564.22 665.718 564.22C663.078 564.22 660.878 563.78 659.118 562.9V558.808C661.172 560.069 663.298 560.7 665.498 560.7C666.642 560.7 667.522 560.465 668.138 559.996C668.784 559.527 669.106 558.911 669.106 558.148C669.106 557.503 668.857 556.931 668.358 556.432C667.86 555.904 667.346 555.523 666.818 555.288C666.32 555.024 665.454 554.628 664.222 554.1C660.732 552.663 658.986 550.551 658.986 547.764C658.986 545.799 659.72 544.259 661.186 543.144C662.653 542.029 664.486 541.472 666.686 541.472C669.092 541.472 670.969 541.795 672.318 542.44ZM213.234 645.576V650.02C211.943 649.316 210.77 648.832 209.714 648.568C208.687 648.275 207.367 648.128 205.754 648.128C202.791 648.128 200.312 649.14 198.318 651.164C196.352 653.159 195.37 655.813 195.37 659.128C195.37 662.501 196.352 665.185 198.318 667.18C200.283 669.175 202.879 670.172 206.106 670.172C208.951 670.172 211.342 669.439 213.278 667.972V672.548C211.459 673.751 208.936 674.352 205.71 674.352C201.28 674.352 197.658 672.973 194.842 670.216C192.026 667.459 190.618 663.763 190.618 659.128C190.618 654.64 192.026 650.988 194.842 648.172C197.687 645.356 201.28 643.948 205.622 643.948C208.79 643.948 211.327 644.491 213.234 645.576ZM232.13 651.692H236.442V674H232.13V670.172C230.957 672.9 228.64 674.264 225.178 674.264C222.978 674.264 221.233 673.619 219.942 672.328C218.652 671.008 218.006 669.204 218.006 666.916V651.692H222.362V665.86C222.362 667.385 222.729 668.559 223.462 669.38C224.225 670.172 225.266 670.568 226.586 670.568C228.258 670.568 229.593 669.981 230.59 668.808C231.617 667.635 232.13 665.977 232.13 663.836V651.692ZM255.221 652.44V656.356C253.783 655.505 251.935 655.08 249.677 655.08C248.65 655.08 247.829 655.315 247.213 655.784C246.626 656.253 246.333 656.869 246.333 657.632C246.333 657.837 246.347 658.043 246.377 658.248C246.435 658.424 246.523 658.615 246.641 658.82C246.758 658.996 246.861 659.157 246.949 659.304C247.066 659.421 247.242 659.553 247.477 659.7C247.711 659.847 247.887 659.979 248.005 660.096C248.151 660.184 248.371 660.301 248.665 660.448C248.987 660.595 249.222 660.712 249.369 660.8C249.515 660.859 249.765 660.976 250.117 661.152C250.498 661.299 250.762 661.401 250.909 661.46C252.639 662.223 253.989 663.088 254.957 664.056C255.954 664.995 256.453 666.256 256.453 667.84C256.453 669.835 255.749 671.404 254.341 672.548C252.933 673.663 251.026 674.22 248.621 674.22C245.981 674.22 243.781 673.78 242.021 672.9V668.808C244.074 670.069 246.201 670.7 248.401 670.7C249.545 670.7 250.425 670.465 251.041 669.996C251.686 669.527 252.009 668.911 252.009 668.148C252.009 667.503 251.759 666.931 251.261 666.432C250.762 665.904 250.249 665.523 249.721 665.288C249.222 665.024 248.357 664.628 247.125 664.1C243.634 662.663 241.889 660.551 241.889 657.764C241.889 655.799 242.622 654.259 244.089 653.144C245.555 652.029 247.389 651.472 249.589 651.472C251.994 651.472 253.871 651.795 255.221 652.44ZM266.526 655.036V667.312C266.526 669.453 267.553 670.524 269.606 670.524C270.809 670.524 271.821 670.201 272.642 669.556V673.428C271.674 673.956 270.486 674.22 269.078 674.22C264.473 674.22 262.17 671.888 262.17 667.224V655.036H258.694V651.692H262.17V646.236H266.526V651.692H272.378V655.036H266.526ZM286.723 674.396C283.438 674.396 280.857 673.325 278.979 671.184C277.102 669.043 276.163 666.329 276.163 663.044C276.163 659.7 277.131 656.928 279.067 654.728C281.003 652.499 283.555 651.384 286.723 651.384C290.126 651.384 292.751 652.469 294.599 654.64C296.447 656.781 297.371 659.524 297.371 662.868C297.371 666.212 296.418 668.969 294.511 671.14C292.634 673.311 290.038 674.396 286.723 674.396ZM286.679 655.036C284.773 655.036 283.291 655.799 282.235 657.324C281.179 658.82 280.651 660.683 280.651 662.912C280.651 665.112 281.194 666.975 282.279 668.5C283.365 669.996 284.846 670.744 286.723 670.744C288.718 670.744 290.229 670.011 291.255 668.544C292.311 667.077 292.839 665.215 292.839 662.956C292.839 660.639 292.341 658.747 291.343 657.28C290.346 655.784 288.791 655.036 286.679 655.036ZM306.543 651.692V655.256C307.805 652.675 309.902 651.384 312.835 651.384C316.179 651.384 318.321 652.821 319.259 655.696C319.875 654.317 320.77 653.261 321.943 652.528C323.117 651.765 324.437 651.384 325.903 651.384C328.191 651.384 329.922 652.059 331.095 653.408C332.298 654.757 332.899 656.62 332.899 658.996V674H328.587V659.92C328.587 656.723 327.297 655.124 324.715 655.124C323.425 655.124 322.266 655.696 321.239 656.84C320.242 657.984 319.743 659.671 319.743 661.9V674H315.431V659.92C315.431 656.723 314.126 655.124 311.515 655.124C310.254 655.124 309.11 655.696 308.083 656.84C307.057 657.984 306.543 659.671 306.543 661.9V674H302.231V651.692H306.543ZM338.931 674V651.692H343.287V674H338.931ZM339.151 646.808C338.652 646.28 338.403 645.635 338.403 644.872C338.403 644.109 338.652 643.464 339.151 642.936C339.679 642.408 340.324 642.144 341.087 642.144C341.849 642.144 342.495 642.408 343.023 642.936C343.551 643.464 343.815 644.109 343.815 644.872C343.815 645.605 343.551 646.236 343.023 646.764C342.495 647.292 341.849 647.556 341.087 647.556C340.324 647.556 339.679 647.307 339.151 646.808ZM364.324 651.692V654.772L353.368 670.348H364.896V674H348.396V670.7L359.22 655.3H348.792V651.692H364.324ZM383.681 661.24V660.448C383.622 658.776 383.168 657.456 382.317 656.488C381.466 655.491 380.249 654.992 378.665 654.992C377.198 654.992 375.937 655.535 374.881 656.62C373.825 657.676 373.165 659.216 372.901 661.24H383.681ZM386.453 668.94V672.812C384.81 673.751 382.64 674.22 379.941 674.22C376.48 674.22 373.722 673.179 371.669 671.096C369.616 669.013 368.589 666.285 368.589 662.912C368.589 659.333 369.528 656.532 371.405 654.508C373.282 652.455 375.673 651.428 378.577 651.428C381.422 651.428 383.681 652.323 385.353 654.112C387.025 655.872 387.861 658.424 387.861 661.768C387.861 662.677 387.773 663.631 387.597 664.628H372.945C373.238 666.564 374.06 668.045 375.409 669.072C376.758 670.099 378.46 670.612 380.513 670.612C382.889 670.612 384.869 670.055 386.453 668.94ZM401.958 670.524C403.66 670.524 405.097 669.879 406.27 668.588C407.444 667.297 408.03 665.332 408.03 662.692C408.03 660.14 407.414 658.248 406.182 657.016C404.98 655.784 403.616 655.168 402.09 655.168C400.36 655.168 398.937 655.857 397.822 657.236C396.708 658.585 396.15 660.521 396.15 663.044C396.15 665.273 396.693 667.077 397.778 668.456C398.893 669.835 400.286 670.524 401.958 670.524ZM408.03 642.892H412.386V674H408.03V670.612C406.476 673.076 404.202 674.308 401.21 674.308C398.277 674.308 395.96 673.208 394.258 671.008C392.557 668.779 391.706 666.095 391.706 662.956C391.706 659.465 392.601 656.664 394.39 654.552C396.18 652.44 398.482 651.384 401.298 651.384C404.202 651.384 406.446 652.616 408.03 655.08V642.892ZM433.998 670.216H446.582V674H429.466V644.344H446.362V648.128H433.998V657.28H444.954V661.064H433.998V670.216ZM457.611 674L449.691 651.692H454.223L457.259 661.108C457.963 663.279 458.55 665.156 459.019 666.74C459.518 668.324 459.826 669.365 459.943 669.864L460.119 670.612C460.383 669.175 461.351 666.007 463.023 661.108L466.147 651.692H470.635L462.539 674H457.611ZM488.353 661.24V660.448C488.294 658.776 487.84 657.456 486.989 656.488C486.138 655.491 484.921 654.992 483.337 654.992C481.87 654.992 480.609 655.535 479.553 656.62C478.497 657.676 477.837 659.216 477.573 661.24H488.353ZM491.125 668.94V672.812C489.482 673.751 487.312 674.22 484.613 674.22C481.152 674.22 478.394 673.179 476.341 671.096C474.288 669.013 473.261 666.285 473.261 662.912C473.261 659.333 474.2 656.532 476.077 654.508C477.954 652.455 480.345 651.428 483.249 651.428C486.094 651.428 488.353 652.323 490.025 654.112C491.697 655.872 492.533 658.424 492.533 661.768C492.533 662.677 492.445 663.631 492.269 664.628H477.617C477.91 666.564 478.732 668.045 480.081 669.072C481.43 670.099 483.132 670.612 485.185 670.612C487.561 670.612 489.541 670.055 491.125 668.94ZM501.922 651.692V655.52C503.242 652.763 505.56 651.384 508.874 651.384C511.074 651.384 512.82 652.059 514.11 653.408C515.401 654.757 516.046 656.591 516.046 658.908V674H511.734V659.92C511.734 658.365 511.338 657.177 510.546 656.356C509.784 655.535 508.757 655.124 507.466 655.124C505.941 655.124 504.636 655.725 503.55 656.928C502.465 658.101 501.922 659.759 501.922 661.9V674H497.61V651.692H501.922ZM527.433 655.036V667.312C527.433 669.453 528.459 670.524 530.513 670.524C531.715 670.524 532.727 670.201 533.549 669.556V673.428C532.581 673.956 531.393 674.22 529.985 674.22C525.379 674.22 523.077 671.888 523.077 667.224V655.036H519.601V651.692H523.077V646.236H527.433V651.692H533.285V655.036H527.433ZM573.154 657.06V671.272H573.11L573.154 671.58C570.602 673.428 567.404 674.352 563.562 674.352C558.927 674.352 555.187 672.988 552.342 670.26C549.526 667.532 548.118 663.821 548.118 659.128C548.118 654.581 549.54 650.9 552.386 648.084C555.26 645.239 558.898 643.816 563.298 643.816C566.73 643.816 569.604 644.476 571.922 645.796V650.46C569.399 648.876 566.583 648.084 563.474 648.084C560.306 648.084 557.739 649.096 555.774 651.12C553.838 653.144 552.87 655.813 552.87 659.128C552.87 662.531 553.823 665.215 555.73 667.18C557.666 669.145 560.32 670.128 563.694 670.128C565.454 670.128 567.126 669.805 568.71 669.16V660.976H562.682V657.06H573.154ZM578.067 659.04C578.067 654.435 579.299 650.739 581.763 647.952C584.227 645.165 587.527 643.772 591.663 643.772C595.887 643.772 599.216 645.165 601.651 647.952C604.086 650.709 605.303 654.405 605.303 659.04C605.303 663.675 604.071 667.385 601.607 670.172C599.172 672.959 595.872 674.352 591.707 674.352C587.571 674.352 584.256 672.959 581.763 670.172C579.299 667.385 578.067 663.675 578.067 659.04ZM585.151 650.988C583.596 652.953 582.819 655.637 582.819 659.04C582.819 662.443 583.626 665.141 585.239 667.136C586.852 669.131 589.008 670.128 591.707 670.128C594.494 670.128 596.664 669.145 598.219 667.18C599.774 665.215 600.551 662.501 600.551 659.04C600.551 655.608 599.759 652.909 598.175 650.944C596.62 648.979 594.45 647.996 591.663 647.996C588.906 647.996 586.735 648.993 585.151 650.988ZM615.068 670.26H620.876C624.602 670.26 626.464 668.72 626.464 665.64C626.464 664.144 625.951 662.985 624.924 662.164C623.927 661.313 622.431 660.888 620.436 660.888H615.068V670.26ZM615.068 648.084V657.192H619.16C621.36 657.192 622.988 656.752 624.044 655.872C625.13 654.963 625.672 653.789 625.672 652.352C625.672 651.091 625.188 650.064 624.22 649.272C623.282 648.48 621.844 648.084 619.908 648.084H615.068ZM610.536 644.344H620.26C623.37 644.344 625.819 645.077 627.608 646.544C629.398 647.981 630.292 649.888 630.292 652.264C630.292 653.907 629.823 655.344 628.884 656.576C627.975 657.808 626.802 658.6 625.364 658.952C626.978 659.245 628.327 659.993 629.412 661.196C630.527 662.399 631.084 664.012 631.084 666.036C631.084 668.383 630.278 670.304 628.664 671.8C627.08 673.267 624.836 674 621.932 674H610.536V644.344ZM634.915 659.04C634.915 654.435 636.147 650.739 638.611 647.952C641.075 645.165 644.375 643.772 648.511 643.772C652.735 643.772 656.064 645.165 658.499 647.952C660.933 650.709 662.151 654.405 662.151 659.04C662.151 663.675 660.919 667.385 658.455 670.172C656.02 672.959 652.72 674.352 648.555 674.352C644.419 674.352 641.104 672.959 638.611 670.172C636.147 667.385 634.915 663.675 634.915 659.04ZM641.999 650.988C640.444 652.953 639.667 655.637 639.667 659.04C639.667 662.443 640.473 665.141 642.087 667.136C643.7 669.131 645.856 670.128 648.555 670.128C651.341 670.128 653.512 669.145 655.067 667.18C656.621 665.215 657.399 662.501 657.399 659.04C657.399 655.608 656.607 652.909 655.023 650.944C653.468 648.979 651.297 647.996 648.511 647.996C645.753 647.996 643.583 648.993 641.999 650.988ZM41.2298 756.576V761.02C39.9392 760.316 38.7658 759.832 37.7098 759.568C36.6832 759.275 35.3632 759.128 33.7498 759.128C30.7872 759.128 28.3085 760.14 26.3138 762.164C24.3485 764.159 23.3658 766.813 23.3658 770.128C23.3658 773.501 24.3485 776.185 26.3138 778.18C28.2792 780.175 30.8752 781.172 34.1018 781.172C36.9472 781.172 39.3378 780.439 41.2738 778.972V783.548C39.4552 784.751 36.9325 785.352 33.7058 785.352C29.2765 785.352 25.6538 783.973 22.8378 781.216C20.0218 778.459 18.6138 774.763 18.6138 770.128C18.6138 765.64 20.0218 761.988 22.8378 759.172C25.6832 756.356 29.2765 754.948 33.6178 754.948C36.7858 754.948 39.3232 755.491 41.2298 756.576ZM50.5785 753.892V766.52C51.8398 763.763 54.1425 762.384 57.4865 762.384C59.6571 762.384 61.4025 763.059 62.7225 764.408C64.0425 765.757 64.7025 767.635 64.7025 770.04V785H60.3905V770.92C60.3905 769.395 59.9945 768.221 59.2025 767.4C58.4398 766.549 57.4278 766.124 56.1665 766.124C54.6998 766.124 53.3945 766.681 52.2505 767.796C51.1358 768.911 50.5785 770.612 50.5785 772.9V785H46.2665V753.892H50.5785ZM82.2488 775.056H78.9048C77.2622 775.056 76.0155 775.379 75.1648 776.024C74.3435 776.669 73.9328 777.491 73.9328 778.488C73.9328 779.515 74.2555 780.321 74.9008 780.908C75.5462 781.495 76.4848 781.788 77.7168 781.788C79.1248 781.788 80.2248 781.407 81.0168 780.644C81.8382 779.852 82.2488 778.825 82.2488 777.564V775.056ZM71.0288 768.016V763.836C72.7595 762.839 75.0475 762.34 77.8928 762.34C83.7302 762.34 86.6488 765.171 86.6488 770.832V785H82.3808V782.36C81.2368 784.237 79.2275 785.176 76.3528 785.176C74.2408 785.176 72.5395 784.575 71.2488 783.372C69.9875 782.14 69.3568 780.585 69.3568 778.708C69.3568 776.567 70.1635 774.909 71.7768 773.736C73.3902 772.533 75.6488 771.932 78.5528 771.932H82.2488V770.656C82.2488 769.131 81.8822 767.987 81.1488 767.224C80.4155 766.432 79.1982 766.036 77.4968 766.036C75.1208 766.036 72.9648 766.696 71.0288 768.016ZM106.318 762.692H110.63V785H106.318V781.172C105.145 783.9 102.827 785.264 99.3659 785.264C97.1659 785.264 95.4205 784.619 94.1299 783.328C92.8392 782.008 92.1939 780.204 92.1939 777.916V762.692H96.5499V776.86C96.5499 778.385 96.9165 779.559 97.6499 780.38C98.4125 781.172 99.4539 781.568 100.774 781.568C102.446 781.568 103.781 780.981 104.778 779.808C105.805 778.635 106.318 776.977 106.318 774.836V762.692ZM122.412 785L114.492 762.692H119.024L122.06 772.108C122.764 774.279 123.351 776.156 123.82 777.74C124.319 779.324 124.627 780.365 124.744 780.864L124.92 781.612C125.184 780.175 126.152 777.007 127.824 772.108L130.948 762.692H135.436L127.34 785H122.412ZM153.154 772.24V771.448C153.095 769.776 152.64 768.456 151.79 767.488C150.939 766.491 149.722 765.992 148.138 765.992C146.671 765.992 145.41 766.535 144.354 767.62C143.298 768.676 142.638 770.216 142.374 772.24H153.154ZM155.926 779.94V783.812C154.283 784.751 152.112 785.22 149.414 785.22C145.952 785.22 143.195 784.179 141.142 782.096C139.088 780.013 138.062 777.285 138.062 773.912C138.062 770.333 139 767.532 140.878 765.508C142.755 763.455 145.146 762.428 148.05 762.428C150.895 762.428 153.154 763.323 154.826 765.112C156.498 766.872 157.334 769.424 157.334 772.768C157.334 773.677 157.246 774.631 157.07 775.628H142.418C142.711 777.564 143.532 779.045 144.882 780.072C146.231 781.099 147.932 781.612 149.986 781.612C152.362 781.612 154.342 781.055 155.926 779.94ZM167.999 766.036V778.312C167.999 780.453 169.026 781.524 171.079 781.524C172.282 781.524 173.294 781.201 174.115 780.556V784.428C173.147 784.956 171.959 785.22 170.551 785.22C165.946 785.22 163.643 782.888 163.643 778.224V766.036H160.167V762.692H163.643V757.236H167.999V762.692H173.851V766.036H167.999ZM207.692 755.344V759.128H199.904V785H195.372V759.128H187.628V755.344H207.692ZM216.008 762.692V766.608C217.093 763.851 219.044 762.472 221.86 762.472C222.271 762.472 222.725 762.516 223.224 762.604V766.828C222.608 766.564 221.919 766.432 221.156 766.432C219.66 766.432 218.428 767.092 217.46 768.412C216.492 769.732 216.008 771.301 216.008 773.12V785H211.696V762.692H216.008ZM240.466 762.692H244.778V785H240.466V781.172C239.293 783.9 236.976 785.264 233.514 785.264C231.314 785.264 229.569 784.619 228.278 783.328C226.988 782.008 226.342 780.204 226.342 777.916V762.692H230.698V776.86C230.698 778.385 231.065 779.559 231.798 780.38C232.561 781.172 233.602 781.568 234.922 781.568C236.594 781.568 237.929 780.981 238.926 779.808C239.953 778.635 240.466 776.977 240.466 774.836V762.692ZM263.557 763.44V767.356C262.119 766.505 260.271 766.08 258.013 766.08C256.986 766.08 256.165 766.315 255.549 766.784C254.962 767.253 254.669 767.869 254.669 768.632C254.669 768.837 254.683 769.043 254.713 769.248C254.771 769.424 254.859 769.615 254.977 769.82C255.094 769.996 255.197 770.157 255.285 770.304C255.402 770.421 255.578 770.553 255.813 770.7C256.047 770.847 256.223 770.979 256.341 771.096C256.487 771.184 256.707 771.301 257.001 771.448C257.323 771.595 257.558 771.712 257.705 771.8C257.851 771.859 258.101 771.976 258.453 772.152C258.834 772.299 259.098 772.401 259.245 772.46C260.975 773.223 262.325 774.088 263.293 775.056C264.29 775.995 264.789 777.256 264.789 778.84C264.789 780.835 264.085 782.404 262.677 783.548C261.269 784.663 259.362 785.22 256.957 785.22C254.317 785.22 252.117 784.78 250.357 783.9V779.808C252.41 781.069 254.537 781.7 256.737 781.7C257.881 781.7 258.761 781.465 259.377 780.996C260.022 780.527 260.345 779.911 260.345 779.148C260.345 778.503 260.095 777.931 259.597 777.432C259.098 776.904 258.585 776.523 258.057 776.288C257.558 776.024 256.693 775.628 255.461 775.1C251.97 773.663 250.225 771.551 250.225 768.764C250.225 766.799 250.958 765.259 252.425 764.144C253.891 763.029 255.725 762.472 257.925 762.472C260.33 762.472 262.207 762.795 263.557 763.44ZM281.99 763.44V767.356C280.553 766.505 278.705 766.08 276.446 766.08C275.42 766.08 274.598 766.315 273.982 766.784C273.396 767.253 273.102 767.869 273.102 768.632C273.102 768.837 273.117 769.043 273.146 769.248C273.205 769.424 273.293 769.615 273.41 769.82C273.528 769.996 273.63 770.157 273.718 770.304C273.836 770.421 274.012 770.553 274.246 770.7C274.481 770.847 274.657 770.979 274.774 771.096C274.921 771.184 275.141 771.301 275.434 771.448C275.757 771.595 275.992 771.712 276.138 771.8C276.285 771.859 276.534 771.976 276.886 772.152C277.268 772.299 277.532 772.401 277.678 772.46C279.409 773.223 280.758 774.088 281.726 775.056C282.724 775.995 283.222 777.256 283.222 778.84C283.222 780.835 282.518 782.404 281.11 783.548C279.702 784.663 277.796 785.22 275.39 785.22C272.75 785.22 270.55 784.78 268.79 783.9V779.808C270.844 781.069 272.97 781.7 275.17 781.7C276.314 781.7 277.194 781.465 277.81 780.996C278.456 780.527 278.778 779.911 278.778 779.148C278.778 778.503 278.529 777.931 278.03 777.432C277.532 776.904 277.018 776.523 276.49 776.288C275.992 776.024 275.126 775.628 273.894 775.1C270.404 773.663 268.658 771.551 268.658 768.764C268.658 766.799 269.392 765.259 270.858 764.144C272.325 763.029 274.158 762.472 276.358 762.472C278.764 762.472 280.641 762.795 281.99 763.44ZM287.884 785V762.692H292.24V785H287.884ZM288.104 757.808C287.605 757.28 287.356 756.635 287.356 755.872C287.356 755.109 287.605 754.464 288.104 753.936C288.632 753.408 289.277 753.144 290.04 753.144C290.803 753.144 291.448 753.408 291.976 753.936C292.504 754.464 292.768 755.109 292.768 755.872C292.768 756.605 292.504 757.236 291.976 757.764C291.448 758.292 290.803 758.556 290.04 758.556C289.277 758.556 288.632 758.307 288.104 757.808ZM302.805 762.692V766.52C304.125 763.763 306.442 762.384 309.757 762.384C311.957 762.384 313.702 763.059 314.993 764.408C316.284 765.757 316.929 767.591 316.929 769.908V785H312.617V770.92C312.617 769.365 312.221 768.177 311.429 767.356C310.666 766.535 309.64 766.124 308.349 766.124C306.824 766.124 305.518 766.725 304.433 767.928C303.348 769.101 302.805 770.759 302.805 772.9V785H298.493V762.692H302.805ZM331.527 780.688C333.053 780.688 334.373 780.101 335.487 778.928C336.631 777.725 337.203 776.053 337.203 773.912C337.203 771.272 336.661 769.321 335.575 768.06C334.519 766.799 333.229 766.168 331.703 766.168C329.973 766.168 328.609 766.857 327.611 768.236C326.614 769.585 326.115 771.375 326.115 773.604C326.115 775.921 326.643 777.681 327.699 778.884C328.785 780.087 330.061 780.688 331.527 780.688ZM337.203 762.692H341.515V783.108C341.515 786.54 340.533 789.121 338.567 790.852C336.631 792.612 334.138 793.492 331.087 793.492C328.213 793.492 325.793 793.008 323.827 792.04V787.684C325.705 788.916 327.978 789.532 330.647 789.532C335.018 789.532 337.203 787.376 337.203 783.064V780.776C335.766 783.181 333.61 784.384 330.735 784.384C328.213 784.384 326.057 783.46 324.267 781.612C322.478 779.735 321.583 777.095 321.583 773.692C321.583 770.407 322.419 767.708 324.091 765.596C325.763 763.455 327.978 762.384 330.735 762.384C333.698 762.384 335.854 763.645 337.203 766.168V762.692ZM362.93 785L355.934 762.692H360.51L362.578 770.084C363.252 772.431 363.824 774.499 364.294 776.288C364.763 778.077 365.056 779.28 365.174 779.896L365.35 780.82C365.731 778.972 366.699 775.379 368.254 770.04L370.41 762.692H374.59L376.79 770.04C377.494 772.475 378.095 774.601 378.594 776.42C379.092 778.209 379.415 779.397 379.562 779.984L379.738 780.864C380.09 779.133 381.087 775.525 382.73 770.04L384.93 762.692H389.286L382.202 785H377.274L375.206 777.696C374.59 775.467 374.047 773.501 373.578 771.8C373.138 770.069 372.844 768.896 372.698 768.28L372.522 767.4C372.111 769.307 371.216 772.739 369.838 777.696L367.814 785H362.93ZM389.809 789.488L405.781 753.892H410.225L394.253 789.488H389.809ZM422.281 785L424.569 755.344H429.937L433.897 766.168C434.601 768.016 435.305 769.981 436.009 772.064C436.713 774.117 437.241 775.716 437.593 776.86L438.165 778.576C439.514 774.587 440.996 770.451 442.609 766.168L446.745 755.344H452.113L454.841 785H450.353L449.297 773.384L448.373 761.504C447.053 765.229 445.616 769.189 444.061 773.384L439.925 784.428H436.361L432.357 773.384L428.353 761.68C428.353 762.971 428.118 766.872 427.649 773.384L426.769 785H422.281ZM470.028 785.396C466.743 785.396 464.161 784.325 462.284 782.184C460.407 780.043 459.468 777.329 459.468 774.044C459.468 770.7 460.436 767.928 462.372 765.728C464.308 763.499 466.86 762.384 470.028 762.384C473.431 762.384 476.056 763.469 477.904 765.64C479.752 767.781 480.676 770.524 480.676 773.868C480.676 777.212 479.723 779.969 477.816 782.14C475.939 784.311 473.343 785.396 470.028 785.396ZM469.984 766.036C468.077 766.036 466.596 766.799 465.54 768.324C464.484 769.82 463.956 771.683 463.956 773.912C463.956 776.112 464.499 777.975 465.584 779.5C466.669 780.996 468.151 781.744 470.028 781.744C472.023 781.744 473.533 781.011 474.56 779.544C475.616 778.077 476.144 776.215 476.144 773.956C476.144 771.639 475.645 769.747 474.648 768.28C473.651 766.784 472.096 766.036 469.984 766.036ZM491.256 785L483.336 762.692H487.868L490.904 772.108C491.608 774.279 492.195 776.156 492.664 777.74C493.163 779.324 493.471 780.365 493.588 780.864L493.764 781.612C494.028 780.175 494.996 777.007 496.668 772.108L499.792 762.692H504.28L496.184 785H491.256ZM508.314 785V762.692H512.67V785H508.314ZM508.534 757.808C508.035 757.28 507.786 756.635 507.786 755.872C507.786 755.109 508.035 754.464 508.534 753.936C509.062 753.408 509.707 753.144 510.47 753.144C511.232 753.144 511.878 753.408 512.406 753.936C512.934 754.464 513.198 755.109 513.198 755.872C513.198 756.605 512.934 757.236 512.406 757.764C511.878 758.292 511.232 758.556 510.47 758.556C509.707 758.556 509.062 758.307 508.534 757.808ZM523.235 762.692V766.52C524.555 763.763 526.872 762.384 530.187 762.384C532.387 762.384 534.132 763.059 535.423 764.408C536.713 765.757 537.359 767.591 537.359 769.908V785H533.047V770.92C533.047 769.365 532.651 768.177 531.859 767.356C531.096 766.535 530.069 766.124 528.779 766.124C527.253 766.124 525.948 766.725 524.863 767.928C523.777 769.101 523.235 770.759 523.235 772.9V785H518.923V762.692H523.235ZM551.957 780.688C553.482 780.688 554.802 780.101 555.917 778.928C557.061 777.725 557.633 776.053 557.633 773.912C557.633 771.272 557.09 769.321 556.005 768.06C554.949 766.799 553.658 766.168 552.133 766.168C550.402 766.168 549.038 766.857 548.041 768.236C547.044 769.585 546.545 771.375 546.545 773.604C546.545 775.921 547.073 777.681 548.129 778.884C549.214 780.087 550.49 780.688 551.957 780.688ZM557.633 762.692H561.945V783.108C561.945 786.54 560.962 789.121 558.997 790.852C557.061 792.612 554.568 793.492 551.517 793.492C548.642 793.492 546.222 793.008 544.257 792.04V787.684C546.134 788.916 548.408 789.532 551.077 789.532C555.448 789.532 557.633 787.376 557.633 783.064V780.776C556.196 783.181 554.04 784.384 551.165 784.384C548.642 784.384 546.486 783.46 544.697 781.612C542.908 779.735 542.013 777.095 542.013 773.692C542.013 770.407 542.849 767.708 544.521 765.596C546.193 763.455 548.408 762.384 551.165 762.384C554.128 762.384 556.284 763.645 557.633 766.168V762.692ZM596.603 755.344H601.135V785H596.603V772.02H583.271V785H578.739V755.344H583.271V768.104H596.603V755.344ZM621.298 772.24V771.448C621.24 769.776 620.785 768.456 619.934 767.488C619.084 766.491 617.866 765.992 616.282 765.992C614.816 765.992 613.554 766.535 612.498 767.62C611.442 768.676 610.782 770.216 610.518 772.24H621.298ZM624.07 779.94V783.812C622.428 784.751 620.257 785.22 617.558 785.22C614.097 785.22 611.34 784.179 609.286 782.096C607.233 780.013 606.206 777.285 606.206 773.912C606.206 770.333 607.145 767.532 609.022 765.508C610.9 763.455 613.29 762.428 616.194 762.428C619.04 762.428 621.298 763.323 622.97 765.112C624.642 766.872 625.478 769.424 625.478 772.768C625.478 773.677 625.39 774.631 625.214 775.628H610.562C610.856 777.564 611.677 779.045 613.026 780.072C614.376 781.099 616.077 781.612 618.13 781.612C620.506 781.612 622.486 781.055 624.07 779.94ZM642.304 775.056H638.96C637.317 775.056 636.07 775.379 635.22 776.024C634.398 776.669 633.988 777.491 633.988 778.488C633.988 779.515 634.31 780.321 634.956 780.908C635.601 781.495 636.54 781.788 637.772 781.788C639.18 781.788 640.28 781.407 641.072 780.644C641.893 779.852 642.304 778.825 642.304 777.564V775.056ZM631.084 768.016V763.836C632.814 762.839 635.102 762.34 637.948 762.34C643.785 762.34 646.704 765.171 646.704 770.832V785H642.436V782.36C641.292 784.237 639.282 785.176 636.408 785.176C634.296 785.176 632.594 784.575 631.304 783.372C630.042 782.14 629.412 780.585 629.412 778.708C629.412 776.567 630.218 774.909 631.832 773.736C633.445 772.533 635.704 771.932 638.608 771.932H642.304V770.656C642.304 769.131 641.937 767.987 641.204 767.224C640.47 766.432 639.253 766.036 637.552 766.036C635.176 766.036 633.02 766.696 631.084 768.016ZM661.533 781.524C663.234 781.524 664.671 780.879 665.845 779.588C667.018 778.297 667.605 776.332 667.605 773.692C667.605 771.14 666.989 769.248 665.757 768.016C664.554 766.784 663.19 766.168 661.665 766.168C659.934 766.168 658.511 766.857 657.397 768.236C656.282 769.585 655.725 771.521 655.725 774.044C655.725 776.273 656.267 778.077 657.353 779.456C658.467 780.835 659.861 781.524 661.533 781.524ZM667.605 753.892H671.961V785H667.605V781.612C666.05 784.076 663.777 785.308 660.785 785.308C657.851 785.308 655.534 784.208 653.833 782.008C652.131 779.779 651.281 777.095 651.281 773.956C651.281 770.465 652.175 767.664 653.965 765.552C655.754 763.44 658.057 762.384 660.873 762.384C663.777 762.384 666.021 763.616 667.605 766.08V753.892ZM476.419 865.344V869.128H468.631V895H464.099V869.128H456.355V865.344H476.419ZM504.359 865.344L494.107 895H488.739L478.751 865.344H483.591L487.375 877.136C488.196 879.659 488.944 882.079 489.619 884.396C490.293 886.684 490.763 888.341 491.027 889.368L491.467 890.952C492.405 887.432 493.813 882.827 495.691 877.136L499.519 865.344H504.359ZM524.232 880.744H528.104C530.246 880.744 531.874 880.216 532.988 879.16C534.132 878.104 534.704 876.711 534.704 874.98C534.704 873.161 534.132 871.724 532.988 870.668C531.844 869.612 530.187 869.084 528.016 869.084H524.232V880.744ZM519.7 865.344H528.192C531.595 865.344 534.294 866.253 536.288 868.072C538.283 869.861 539.28 872.164 539.28 874.98C539.28 877.796 538.268 880.084 536.244 881.844C534.25 883.604 531.654 884.484 528.456 884.484H524.232V895H519.7V865.344ZM555.464 885.056H552.12C550.477 885.056 549.23 885.379 548.38 886.024C547.558 886.669 547.148 887.491 547.148 888.488C547.148 889.515 547.47 890.321 548.116 890.908C548.761 891.495 549.7 891.788 550.932 891.788C552.34 891.788 553.44 891.407 554.232 890.644C555.053 889.852 555.464 888.825 555.464 887.564V885.056ZM544.244 878.016V873.836C545.974 872.839 548.262 872.34 551.108 872.34C556.945 872.34 559.864 875.171 559.864 880.832V895H555.596V892.36C554.452 894.237 552.442 895.176 549.568 895.176C547.456 895.176 545.754 894.575 544.464 893.372C543.202 892.14 542.572 890.585 542.572 888.708C542.572 886.567 543.378 884.909 544.992 883.736C546.605 882.533 548.864 881.932 551.768 881.932H555.464V880.656C555.464 879.131 555.097 877.987 554.364 877.224C553.63 876.432 552.413 876.036 550.712 876.036C548.336 876.036 546.18 876.696 544.244 878.016ZM568.885 883.956C568.943 886.215 569.633 888.077 570.953 889.544C572.273 890.981 574.121 891.7 576.497 891.7C578.257 891.7 579.899 891.216 581.425 890.248V894.12C579.987 895 578.154 895.44 575.925 895.44C572.434 895.44 569.647 894.34 567.565 892.14C565.482 889.94 564.441 887.197 564.441 883.912C564.441 880.715 565.482 877.987 567.565 875.728C569.677 873.44 572.522 872.296 576.101 872.296C578.037 872.296 579.811 872.707 581.425 873.528V877.488C579.987 876.579 578.359 876.124 576.541 876.124C574.223 876.124 572.361 876.857 570.953 878.324C569.574 879.791 568.885 881.668 568.885 883.956ZM586.384 895V864.2H590.696V895H586.384ZM595.844 883.34L604.6 895H599.452L590.872 883.34L599.276 872.692H604.336L595.844 883.34ZM620.132 885.056H616.788C615.145 885.056 613.898 885.379 613.048 886.024C612.226 886.669 611.816 887.491 611.816 888.488C611.816 889.515 612.138 890.321 612.784 890.908C613.429 891.495 614.368 891.788 615.6 891.788C617.008 891.788 618.108 891.407 618.9 890.644C619.721 889.852 620.132 888.825 620.132 887.564V885.056ZM608.912 878.016V873.836C610.642 872.839 612.93 872.34 615.776 872.34C621.613 872.34 624.532 875.171 624.532 880.832V895H620.264V892.36C619.12 894.237 617.11 895.176 614.236 895.176C612.124 895.176 610.422 894.575 609.132 893.372C607.87 892.14 607.24 890.585 607.24 888.708C607.24 886.567 608.046 884.909 609.66 883.736C611.273 882.533 613.532 881.932 616.436 881.932H620.132V880.656C620.132 879.131 619.765 877.987 619.032 877.224C618.298 876.432 617.081 876.036 615.38 876.036C613.004 876.036 610.848 876.696 608.912 878.016ZM639.141 890.688C640.666 890.688 641.986 890.101 643.101 888.928C644.245 887.725 644.817 886.053 644.817 883.912C644.817 881.272 644.274 879.321 643.189 878.06C642.133 876.799 640.842 876.168 639.317 876.168C637.586 876.168 636.222 876.857 635.225 878.236C634.227 879.585 633.729 881.375 633.729 883.604C633.729 885.921 634.257 887.681 635.313 888.884C636.398 890.087 637.674 890.688 639.141 890.688ZM644.817 872.692H649.129V893.108C649.129 896.54 648.146 899.121 646.181 900.852C644.245 902.612 641.751 903.492 638.701 903.492C635.826 903.492 633.406 903.008 631.441 902.04V897.684C633.318 898.916 635.591 899.532 638.261 899.532C642.631 899.532 644.817 897.376 644.817 893.064V890.776C643.379 893.181 641.223 894.384 638.349 894.384C635.826 894.384 633.67 893.46 631.881 891.612C630.091 889.735 629.197 887.095 629.197 883.692C629.197 880.407 630.033 877.708 631.705 875.596C633.377 873.455 635.591 872.384 638.349 872.384C641.311 872.384 643.467 873.645 644.817 876.168V872.692ZM668.779 882.24V881.448C668.72 879.776 668.265 878.456 667.415 877.488C666.564 876.491 665.347 875.992 663.763 875.992C662.296 875.992 661.035 876.535 659.979 877.62C658.923 878.676 658.263 880.216 657.999 882.24H668.779ZM671.551 889.94V893.812C669.908 894.751 667.737 895.22 665.039 895.22C661.577 895.22 658.82 894.179 656.767 892.096C654.713 890.013 653.687 887.285 653.687 883.912C653.687 880.333 654.625 877.532 656.503 875.508C658.38 873.455 660.771 872.428 663.675 872.428C666.52 872.428 668.779 873.323 670.451 875.112C672.123 876.872 672.959 879.424 672.959 882.768C672.959 883.677 672.871 884.631 672.695 885.628H658.043C658.336 887.564 659.157 889.045 660.507 890.072C661.856 891.099 663.557 891.612 665.611 891.612C667.987 891.612 669.967 891.055 671.551 889.94Z" fill="white"/>
<g clip-path="url(#clip0)">
<path d="M1172.12 195.879C1170.95 194.571 1169.05 194.571 1167.88 195.879L1131.94 236.015L1118.12 220.587C1116.95 219.279 1115.05 219.279 1113.88 220.587C1112.71 221.896 1112.71 224.017 1113.88 225.325L1129.82 243.121C1130.99 244.429 1132.89 244.428 1134.06 243.121L1172.12 200.617C1173.29 199.309 1173.29 197.188 1172.12 195.879Z" fill="white"/>
</g>
<g clip-path="url(#clip1)">
<path d="M1172.12 309.879C1170.95 308.571 1169.05 308.571 1167.88 309.879L1131.94 350.015L1118.12 334.587C1116.95 333.279 1115.05 333.279 1113.88 334.587C1112.71 335.896 1112.71 338.017 1113.88 339.325L1129.82 357.121C1130.99 358.429 1132.89 358.428 1134.06 357.121L1172.12 314.617C1173.29 313.309 1173.29 311.188 1172.12 309.879Z" fill="white"/>
</g>
<g clip-path="url(#clip2)">
<path d="M1169.12 528.879C1167.95 527.571 1166.05 527.571 1164.88 528.879L1128.94 569.015L1115.12 553.587C1113.95 552.279 1112.05 552.279 1110.88 553.587C1109.71 554.896 1109.71 557.017 1110.88 558.325L1126.82 576.121C1127.99 577.429 1129.89 577.428 1131.06 576.121L1169.12 533.617C1170.29 532.309 1170.29 530.188 1169.12 528.879Z" fill="white"/>
</g>
<g clip-path="url(#clip3)">
<path d="M1172.12 637.879C1170.95 636.571 1169.05 636.571 1167.88 637.879L1131.94 678.015L1118.12 662.587C1116.95 661.279 1115.05 661.279 1113.88 662.587C1112.71 663.896 1112.71 666.017 1113.88 667.325L1129.82 685.121C1130.99 686.429 1132.89 686.428 1134.06 685.121L1172.12 642.617C1173.29 641.309 1173.29 639.188 1172.12 637.879Z" fill="white"/>
</g>
<path d="M1160 442.84V449.4H1119.36V442.84H1160Z" fill="white"/>
<path d="M1160 764.84V771.4H1119.36V764.84H1160Z" fill="white"/>
<path d="M1160 874.84V881.4H1119.36V874.84H1160Z" fill="white"/>
<g clip-path="url(#clip4)">
<path d="M1496.12 195.879C1494.95 194.571 1493.05 194.571 1491.88 195.879L1455.94 236.015L1442.12 220.587C1440.95 219.279 1439.05 219.279 1437.88 220.587C1436.71 221.896 1436.71 224.017 1437.88 225.325L1453.82 243.121C1454.99 244.429 1456.89 244.428 1458.06 243.121L1496.12 200.617C1497.29 199.309 1497.29 197.188 1496.12 195.879Z" fill="white"/>
</g>
<g clip-path="url(#clip5)">
<path d="M1496.12 309.879C1494.95 308.571 1493.05 308.571 1491.88 309.879L1455.94 350.015L1442.12 334.587C1440.95 333.279 1439.05 333.279 1437.88 334.587C1436.71 335.896 1436.71 338.017 1437.88 339.325L1453.82 357.121C1454.99 358.429 1456.89 358.428 1458.06 357.121L1496.12 314.617C1497.29 313.309 1497.29 311.188 1496.12 309.879Z" fill="white"/>
</g>
<g clip-path="url(#clip6)">
<path d="M1493.12 528.879C1491.95 527.571 1490.05 527.571 1488.88 528.879L1452.94 569.015L1439.12 553.587C1437.95 552.279 1436.05 552.279 1434.88 553.587C1433.71 554.896 1433.71 557.017 1434.88 558.325L1450.82 576.121C1451.99 577.429 1453.89 577.428 1455.06 576.121L1493.12 533.617C1494.29 532.309 1494.29 530.188 1493.12 528.879Z" fill="white"/>
</g>
<g clip-path="url(#clip7)">
<path d="M1496.12 637.879C1494.95 636.571 1493.05 636.571 1491.88 637.879L1455.94 678.015L1442.12 662.587C1440.95 661.279 1439.05 661.279 1437.88 662.587C1436.71 663.896 1436.71 666.017 1437.88 667.325L1453.82 685.121C1454.99 686.429 1456.89 686.428 1458.06 685.121L1496.12 642.617C1497.29 641.309 1497.29 639.188 1496.12 637.879Z" fill="white"/>
</g>
<g clip-path="url(#clip8)">
<path d="M1496.12 746.879C1494.95 745.571 1493.05 745.571 1491.88 746.879L1455.94 787.015L1442.12 771.587C1440.95 770.279 1439.05 770.279 1437.88 771.587C1436.71 772.896 1436.71 775.017 1437.88 776.325L1453.82 794.121C1454.99 795.429 1456.89 795.428 1458.06 794.121L1496.12 751.617C1497.29 750.309 1497.29 748.188 1496.12 746.879Z" fill="white"/>
</g>
<g clip-path="url(#clip9)">
<path d="M1496.12 419.879C1494.95 418.571 1493.05 418.571 1491.88 419.879L1455.94 460.015L1442.12 444.587C1440.95 443.279 1439.05 443.279 1437.88 444.587C1436.71 445.896 1436.71 448.017 1437.88 449.325L1453.82 467.121C1454.99 468.429 1456.89 468.428 1458.06 467.121L1496.12 424.617C1497.29 423.309 1497.29 421.188 1496.12 419.879Z" fill="white"/>
</g>
<g clip-path="url(#clip10)">
<path d="M1496.12 855.879C1494.95 854.571 1493.05 854.571 1491.88 855.879L1455.94 896.015L1442.12 880.587C1440.95 879.279 1439.05 879.279 1437.88 880.587C1436.71 881.896 1436.71 884.017 1437.88 885.325L1453.82 903.121C1454.99 904.429 1456.89 904.428 1458.06 903.121L1496.12 860.617C1497.29 859.309 1497.29 857.188 1496.12 855.879Z" fill="white"/>
</g>
<g clip-path="url(#clip11)">
<path d="M885.121 195.879C883.95 194.571 882.05 194.571 880.879 195.879L844.937 236.015L831.121 220.587C829.95 219.279 828.05 219.279 826.879 220.587C825.707 221.896 825.707 224.017 826.879 225.325L842.816 243.121C843.987 244.429 845.887 244.428 847.058 243.121L885.121 200.617C886.293 199.309 886.293 197.188 885.121 195.879Z" fill="white"/>
</g>
<g clip-path="url(#clip12)">
<path d="M885.121 309.879C883.95 308.571 882.05 308.571 880.879 309.879L844.937 350.015L831.121 334.587C829.95 333.279 828.05 333.279 826.879 334.587C825.707 335.896 825.707 338.017 826.879 339.325L842.816 357.121C843.987 358.429 845.887 358.428 847.058 357.121L885.121 314.617C886.293 313.309 886.293 311.188 885.121 309.879Z" fill="white"/>
</g>
<g clip-path="url(#clip13)">
<path d="M885.121 309.879C883.95 308.571 882.05 308.571 880.879 309.879L844.937 350.015L831.121 334.587C829.95 333.279 828.05 333.279 826.879 334.587C825.707 335.896 825.707 338.017 826.879 339.325L842.816 357.121C843.987 358.429 845.887 358.428 847.058 357.121L885.121 314.617C886.293 313.309 886.293 311.188 885.121 309.879Z" fill="white"/>
</g>
<path d="M871.001 551.84V558.4H830.361V551.84H871.001Z" fill="white"/>
<path d="M871.001 653.84V660.4H830.361V653.84H871.001Z" fill="white"/>
<path d="M871.001 764.84V771.4H830.361V764.84H871.001Z" fill="white"/>
<path d="M871.001 874.84V881.4H830.361V874.84H871.001Z" fill="white"/>
<path d="M871.001 442.84V449.4H830.361V442.84H871.001Z" fill="white"/>
<defs>
<clipPath id="clip0">
<rect width="60" height="67" fill="white" transform="translate(1113 186)"/>
</clipPath>
<clipPath id="clip1">
<rect width="60" height="67" fill="white" transform="translate(1113 300)"/>
</clipPath>
<clipPath id="clip2">
<rect width="60" height="67" fill="white" transform="translate(1110 519)"/>
</clipPath>
<clipPath id="clip3">
<rect width="60" height="67" fill="white" transform="translate(1113 628)"/>
</clipPath>
<clipPath id="clip4">
<rect width="60" height="67" fill="white" transform="translate(1437 186)"/>
</clipPath>
<clipPath id="clip5">
<rect width="60" height="67" fill="white" transform="translate(1437 300)"/>
</clipPath>
<clipPath id="clip6">
<rect width="60" height="67" fill="white" transform="translate(1434 519)"/>
</clipPath>
<clipPath id="clip7">
<rect width="60" height="67" fill="white" transform="translate(1437 628)"/>
</clipPath>
<clipPath id="clip8">
<rect width="60" height="67" fill="white" transform="translate(1437 737)"/>
</clipPath>
<clipPath id="clip9">
<rect width="60" height="67" fill="white" transform="translate(1437 410)"/>
</clipPath>
<clipPath id="clip10">
<rect width="60" height="67" fill="white" transform="translate(1437 846)"/>
</clipPath>
<clipPath id="clip11">
<rect width="60" height="67" fill="white" transform="translate(826 186)"/>
</clipPath>
<clipPath id="clip12">
<rect width="60" height="67" fill="white" transform="translate(826 300)"/>
</clipPath>
<clipPath id="clip13">
<rect width="60" height="67" fill="white" transform="translate(826 300)"/>
</clipPath>
</defs>
</svg>
